<mxfile host="app.diagrams.net" agent="Mozilla/5.0 (Macintosh; Intel Mac OS X 10_15_7) AppleWebKit/537.36 (KHTML, like Gecko) Chrome/135.0.0.0 Safari/537.36" version="26.2.14">
  <diagram id="c6vPCQbDTAW3_hjepVWK" name="Page-1">
    <mxGraphModel dx="1714" dy="1526" grid="1" gridSize="10" guides="1" tooltips="1" connect="1" arrows="1" fold="1" page="0" pageScale="1" pageWidth="827" pageHeight="1169" math="0" shadow="0">
      <root>
        <mxCell id="0" />
        <mxCell id="1" parent="0" />
        <mxCell id="IMRiH2Jyy75GKOMvcvbp-24" value="调用方" style="rounded=1;whiteSpace=wrap;html=1;fillColor=#6666FF;fontSize=16;strokeColor=#6c8ebf;" parent="1" vertex="1">
          <mxGeometry x="1520" y="-50" width="770" height="590" as="geometry" />
        </mxCell>
        <mxCell id="qctzH7rqazo4ZXe9pNT--71" value="" style="ellipse;whiteSpace=wrap;html=1;fillColor=none;" parent="1" vertex="1">
          <mxGeometry x="129" y="765" width="210" height="180" as="geometry" />
        </mxCell>
        <mxCell id="qctzH7rqazo4ZXe9pNT--70" value="" style="ellipse;whiteSpace=wrap;html=1;fillColor=none;" parent="1" vertex="1">
          <mxGeometry x="129" y="570" width="210" height="180" as="geometry" />
        </mxCell>
        <mxCell id="nqajYnND2lpwk76EezyJ-1" value="Caller" style="rounded=1;whiteSpace=wrap;html=1;fillColor=#9999FF;fontSize=16;" parent="1" vertex="1">
          <mxGeometry x="170" y="330" width="120" height="60" as="geometry" />
        </mxCell>
        <mxCell id="nqajYnND2lpwk76EezyJ-2" value="Service" style="rounded=1;whiteSpace=wrap;html=1;fillColor=#9999FF;fontSize=16;" parent="1" vertex="1">
          <mxGeometry x="620" y="330" width="120" height="60" as="geometry" />
        </mxCell>
        <mxCell id="nqajYnND2lpwk76EezyJ-3" value="Control Center" style="rounded=1;whiteSpace=wrap;html=1;fillColor=#33FFFF;fontSize=16;" parent="1" vertex="1">
          <mxGeometry x="290" y="180" width="120" height="60" as="geometry" />
        </mxCell>
        <mxCell id="nqajYnND2lpwk76EezyJ-4" value="Monitor" style="rounded=1;whiteSpace=wrap;html=1;fillColor=#33FFFF;fontSize=16;" parent="1" vertex="1">
          <mxGeometry x="500" y="180" width="120" height="60" as="geometry" />
        </mxCell>
        <mxCell id="nqajYnND2lpwk76EezyJ-5" value="Srvmgr" style="rounded=1;whiteSpace=wrap;html=1;fillColor=#00FFFF;fontSize=16;" parent="1" vertex="1">
          <mxGeometry x="400" y="40" width="120" height="60" as="geometry" />
        </mxCell>
        <mxCell id="nqajYnND2lpwk76EezyJ-6" value="" style="endArrow=classic;html=1;fontSize=16;entryX=0.5;entryY=1;entryDx=0;entryDy=0;exitX=0.5;exitY=0;exitDx=0;exitDy=0;dashed=1;strokeWidth=2;strokeColor=#6666FF;" parent="1" source="nqajYnND2lpwk76EezyJ-2" target="nqajYnND2lpwk76EezyJ-3" edge="1">
          <mxGeometry width="50" height="50" relative="1" as="geometry">
            <mxPoint x="420" y="420" as="sourcePoint" />
            <mxPoint x="470" y="370" as="targetPoint" />
          </mxGeometry>
        </mxCell>
        <mxCell id="nqajYnND2lpwk76EezyJ-7" value="1.registry" style="text;html=1;align=center;verticalAlign=middle;resizable=0;points=[];labelBackgroundColor=#ffffff;fontSize=16;" parent="nqajYnND2lpwk76EezyJ-6" vertex="1" connectable="0">
          <mxGeometry x="0.066" y="-2" relative="1" as="geometry">
            <mxPoint x="65.06" y="19.82" as="offset" />
          </mxGeometry>
        </mxCell>
        <mxCell id="nqajYnND2lpwk76EezyJ-8" value="" style="endArrow=none;html=1;fontSize=16;entryX=0.5;entryY=1;entryDx=0;entryDy=0;exitX=0.5;exitY=0;exitDx=0;exitDy=0;dashed=1;strokeWidth=2;strokeColor=#6666FF;startArrow=classic;startFill=1;endFill=0;" parent="1" source="nqajYnND2lpwk76EezyJ-1" target="nqajYnND2lpwk76EezyJ-3" edge="1">
          <mxGeometry width="50" height="50" relative="1" as="geometry">
            <mxPoint x="630" y="370" as="sourcePoint" />
            <mxPoint x="360" y="250" as="targetPoint" />
          </mxGeometry>
        </mxCell>
        <mxCell id="nqajYnND2lpwk76EezyJ-9" value="2.notify" style="text;html=1;align=center;verticalAlign=middle;resizable=0;points=[];labelBackgroundColor=#ffffff;fontSize=16;" parent="nqajYnND2lpwk76EezyJ-8" vertex="1" connectable="0">
          <mxGeometry x="-0.6533" y="3" relative="1" as="geometry">
            <mxPoint x="41" y="-32" as="offset" />
          </mxGeometry>
        </mxCell>
        <mxCell id="nqajYnND2lpwk76EezyJ-10" value="" style="endArrow=classic;html=1;fontSize=16;entryX=0;entryY=0.5;entryDx=0;entryDy=0;exitX=1;exitY=0.5;exitDx=0;exitDy=0;strokeWidth=2;strokeColor=#33FFFF;" parent="1" source="nqajYnND2lpwk76EezyJ-1" target="nqajYnND2lpwk76EezyJ-2" edge="1">
          <mxGeometry width="50" height="50" relative="1" as="geometry">
            <mxPoint x="690" y="340" as="sourcePoint" />
            <mxPoint x="360" y="250" as="targetPoint" />
          </mxGeometry>
        </mxCell>
        <mxCell id="nqajYnND2lpwk76EezyJ-11" value="3.invoke" style="text;html=1;align=center;verticalAlign=middle;resizable=0;points=[];labelBackgroundColor=#ffffff;fontSize=16;" parent="nqajYnND2lpwk76EezyJ-10" vertex="1" connectable="0">
          <mxGeometry x="0.066" y="-2" relative="1" as="geometry">
            <mxPoint x="-16" y="-15.000000000000004" as="offset" />
          </mxGeometry>
        </mxCell>
        <mxCell id="nqajYnND2lpwk76EezyJ-12" value="" style="endArrow=classic;html=1;fontSize=16;entryX=0.5;entryY=1;entryDx=0;entryDy=0;exitX=0.5;exitY=0;exitDx=0;exitDy=0;dashed=1;strokeWidth=2;strokeColor=#6666FF;" parent="1" source="nqajYnND2lpwk76EezyJ-1" target="nqajYnND2lpwk76EezyJ-4" edge="1">
          <mxGeometry width="50" height="50" relative="1" as="geometry">
            <mxPoint x="690" y="340" as="sourcePoint" />
            <mxPoint x="360" y="250" as="targetPoint" />
          </mxGeometry>
        </mxCell>
        <mxCell id="nqajYnND2lpwk76EezyJ-13" value="4.count" style="text;html=1;align=center;verticalAlign=middle;resizable=0;points=[];labelBackgroundColor=#ffffff;fontSize=16;" parent="nqajYnND2lpwk76EezyJ-12" vertex="1" connectable="0">
          <mxGeometry x="0.066" y="-2" relative="1" as="geometry">
            <mxPoint x="-26.11" y="5.960000000000001" as="offset" />
          </mxGeometry>
        </mxCell>
        <mxCell id="nqajYnND2lpwk76EezyJ-14" value="" style="endArrow=classic;html=1;fontSize=16;entryX=0.5;entryY=1;entryDx=0;entryDy=0;exitX=0.5;exitY=0;exitDx=0;exitDy=0;dashed=1;strokeWidth=2;strokeColor=#6666FF;" parent="1" source="nqajYnND2lpwk76EezyJ-2" target="nqajYnND2lpwk76EezyJ-4" edge="1">
          <mxGeometry width="50" height="50" relative="1" as="geometry">
            <mxPoint x="240" y="340" as="sourcePoint" />
            <mxPoint x="570" y="250" as="targetPoint" />
          </mxGeometry>
        </mxCell>
        <mxCell id="nqajYnND2lpwk76EezyJ-15" value="4.count" style="text;html=1;align=center;verticalAlign=middle;resizable=0;points=[];labelBackgroundColor=#ffffff;fontSize=16;" parent="nqajYnND2lpwk76EezyJ-14" vertex="1" connectable="0">
          <mxGeometry x="0.066" y="-2" relative="1" as="geometry">
            <mxPoint x="-7.200000000000003" y="-10.400000000000002" as="offset" />
          </mxGeometry>
        </mxCell>
        <mxCell id="nqajYnND2lpwk76EezyJ-16" value="" style="endArrow=classic;html=1;fontSize=16;entryX=0.5;entryY=0;entryDx=0;entryDy=0;exitX=0.5;exitY=1;exitDx=0;exitDy=0;dashed=1;strokeWidth=2;strokeColor=#6666FF;" parent="1" source="nqajYnND2lpwk76EezyJ-5" target="nqajYnND2lpwk76EezyJ-3" edge="1">
          <mxGeometry width="50" height="50" relative="1" as="geometry">
            <mxPoint x="690" y="340" as="sourcePoint" />
            <mxPoint x="360" y="250" as="targetPoint" />
          </mxGeometry>
        </mxCell>
        <mxCell id="nqajYnND2lpwk76EezyJ-17" value="6.op" style="text;html=1;align=center;verticalAlign=middle;resizable=0;points=[];labelBackgroundColor=#ffffff;fontSize=16;" parent="nqajYnND2lpwk76EezyJ-16" vertex="1" connectable="0">
          <mxGeometry x="0.066" y="-2" relative="1" as="geometry">
            <mxPoint x="-10.590000000000003" y="9.27" as="offset" />
          </mxGeometry>
        </mxCell>
        <mxCell id="nqajYnND2lpwk76EezyJ-18" value="" style="endArrow=none;html=1;fontSize=16;entryX=0.5;entryY=0;entryDx=0;entryDy=0;exitX=0.5;exitY=1;exitDx=0;exitDy=0;dashed=1;strokeWidth=2;strokeColor=#6666FF;startArrow=classic;startFill=1;endFill=0;" parent="1" source="nqajYnND2lpwk76EezyJ-5" target="nqajYnND2lpwk76EezyJ-4" edge="1">
          <mxGeometry width="50" height="50" relative="1" as="geometry">
            <mxPoint x="470" y="110" as="sourcePoint" />
            <mxPoint x="360" y="190" as="targetPoint" />
          </mxGeometry>
        </mxCell>
        <mxCell id="nqajYnND2lpwk76EezyJ-19" value="5.fetch" style="text;html=1;align=center;verticalAlign=middle;resizable=0;points=[];labelBackgroundColor=#ffffff;fontSize=16;" parent="nqajYnND2lpwk76EezyJ-18" vertex="1" connectable="0">
          <mxGeometry x="0.066" y="-2" relative="1" as="geometry">
            <mxPoint x="8.149999999999995" y="5.959999999999999" as="offset" />
          </mxGeometry>
        </mxCell>
        <mxCell id="kpHwbxMFUV27yNFj0fHA-5" value="" style="endArrow=none;html=1;fontSize=16;strokeWidth=2;strokeColor=#33FFFF;endFill=0;" parent="1" edge="1">
          <mxGeometry width="50" height="50" relative="1" as="geometry">
            <mxPoint x="670" y="90" as="sourcePoint" />
            <mxPoint x="740" y="90" as="targetPoint" />
          </mxGeometry>
        </mxCell>
        <mxCell id="kpHwbxMFUV27yNFj0fHA-6" value="sync" style="text;html=1;align=center;verticalAlign=middle;resizable=0;points=[];labelBackgroundColor=#ffffff;fontSize=16;" parent="kpHwbxMFUV27yNFj0fHA-5" vertex="1" connectable="0">
          <mxGeometry x="0.066" y="-2" relative="1" as="geometry">
            <mxPoint x="63" y="-2.0000000000000036" as="offset" />
          </mxGeometry>
        </mxCell>
        <mxCell id="kpHwbxMFUV27yNFj0fHA-7" value="" style="endArrow=none;html=1;fontSize=16;strokeWidth=2;strokeColor=#0000FF;endFill=0;dashed=1;" parent="1" edge="1">
          <mxGeometry width="50" height="50" relative="1" as="geometry">
            <mxPoint x="670" y="69.5" as="sourcePoint" />
            <mxPoint x="740" y="69.5" as="targetPoint" />
          </mxGeometry>
        </mxCell>
        <mxCell id="kpHwbxMFUV27yNFj0fHA-8" value="async" style="text;html=1;align=center;verticalAlign=middle;resizable=0;points=[];labelBackgroundColor=#ffffff;fontSize=16;" parent="kpHwbxMFUV27yNFj0fHA-7" vertex="1" connectable="0">
          <mxGeometry x="0.066" y="-2" relative="1" as="geometry">
            <mxPoint x="63" y="-2.0000000000000036" as="offset" />
          </mxGeometry>
        </mxCell>
        <mxCell id="qctzH7rqazo4ZXe9pNT--1" value="调用方" style="rounded=1;whiteSpace=wrap;html=1;fillColor=#dae8fc;fontSize=16;strokeColor=#6c8ebf;" parent="1" vertex="1">
          <mxGeometry x="870" y="330" width="120" height="60" as="geometry" />
        </mxCell>
        <mxCell id="qctzH7rqazo4ZXe9pNT--2" value="服务方" style="rounded=1;whiteSpace=wrap;html=1;fillColor=#d5e8d4;fontSize=16;strokeColor=#82b366;" parent="1" vertex="1">
          <mxGeometry x="1320" y="330" width="120" height="60" as="geometry" />
        </mxCell>
        <mxCell id="qctzH7rqazo4ZXe9pNT--3" value="注册中心" style="rounded=1;whiteSpace=wrap;html=1;fillColor=#e1d5e7;fontSize=16;strokeColor=#9673a6;" parent="1" vertex="1">
          <mxGeometry x="990" y="180" width="120" height="60" as="geometry" />
        </mxCell>
        <mxCell id="qctzH7rqazo4ZXe9pNT--4" value="监控" style="rounded=1;whiteSpace=wrap;html=1;fillColor=#e1d5e7;fontSize=16;strokeColor=#9673a6;" parent="1" vertex="1">
          <mxGeometry x="1200" y="180" width="120" height="60" as="geometry" />
        </mxCell>
        <mxCell id="qctzH7rqazo4ZXe9pNT--5" value="管理平台" style="rounded=1;whiteSpace=wrap;html=1;fillColor=#e1d5e7;fontSize=16;strokeColor=#9673a6;" parent="1" vertex="1">
          <mxGeometry x="1100" y="40" width="120" height="60" as="geometry" />
        </mxCell>
        <mxCell id="qctzH7rqazo4ZXe9pNT--6" value="" style="endArrow=classic;html=1;fontSize=16;entryX=0.5;entryY=1;entryDx=0;entryDy=0;exitX=0.5;exitY=0;exitDx=0;exitDy=0;dashed=1;strokeWidth=2;strokeColor=#6666FF;" parent="1" source="qctzH7rqazo4ZXe9pNT--2" target="qctzH7rqazo4ZXe9pNT--3" edge="1">
          <mxGeometry width="50" height="50" relative="1" as="geometry">
            <mxPoint x="1120" y="420" as="sourcePoint" />
            <mxPoint x="1170" y="370" as="targetPoint" />
          </mxGeometry>
        </mxCell>
        <mxCell id="qctzH7rqazo4ZXe9pNT--7" value="1.registry" style="text;html=1;align=center;verticalAlign=middle;resizable=0;points=[];labelBackgroundColor=#ffffff;fontSize=16;" parent="qctzH7rqazo4ZXe9pNT--6" vertex="1" connectable="0">
          <mxGeometry x="0.066" y="-2" relative="1" as="geometry">
            <mxPoint x="65.06" y="19.82" as="offset" />
          </mxGeometry>
        </mxCell>
        <mxCell id="qctzH7rqazo4ZXe9pNT--8" value="" style="endArrow=none;html=1;fontSize=16;entryX=0.5;entryY=1;entryDx=0;entryDy=0;exitX=0.5;exitY=0;exitDx=0;exitDy=0;dashed=1;strokeWidth=2;strokeColor=#6666FF;startArrow=classic;startFill=1;endFill=0;" parent="1" source="qctzH7rqazo4ZXe9pNT--1" target="qctzH7rqazo4ZXe9pNT--3" edge="1">
          <mxGeometry width="50" height="50" relative="1" as="geometry">
            <mxPoint x="1330" y="370" as="sourcePoint" />
            <mxPoint x="1060" y="250" as="targetPoint" />
          </mxGeometry>
        </mxCell>
        <mxCell id="qctzH7rqazo4ZXe9pNT--9" value="2.notify" style="text;html=1;align=center;verticalAlign=middle;resizable=0;points=[];labelBackgroundColor=#ffffff;fontSize=16;" parent="qctzH7rqazo4ZXe9pNT--8" vertex="1" connectable="0">
          <mxGeometry x="-0.6533" y="3" relative="1" as="geometry">
            <mxPoint x="41" y="-32" as="offset" />
          </mxGeometry>
        </mxCell>
        <mxCell id="qctzH7rqazo4ZXe9pNT--10" value="" style="endArrow=classic;html=1;fontSize=16;entryX=0;entryY=0.5;entryDx=0;entryDy=0;exitX=1;exitY=0.5;exitDx=0;exitDy=0;strokeWidth=2;strokeColor=#33FFFF;" parent="1" source="qctzH7rqazo4ZXe9pNT--1" target="qctzH7rqazo4ZXe9pNT--2" edge="1">
          <mxGeometry width="50" height="50" relative="1" as="geometry">
            <mxPoint x="1390" y="340" as="sourcePoint" />
            <mxPoint x="1060" y="250" as="targetPoint" />
          </mxGeometry>
        </mxCell>
        <mxCell id="qctzH7rqazo4ZXe9pNT--11" value="3.invoke" style="text;html=1;align=center;verticalAlign=middle;resizable=0;points=[];labelBackgroundColor=#ffffff;fontSize=16;" parent="qctzH7rqazo4ZXe9pNT--10" vertex="1" connectable="0">
          <mxGeometry x="0.066" y="-2" relative="1" as="geometry">
            <mxPoint x="-16" y="-15.000000000000004" as="offset" />
          </mxGeometry>
        </mxCell>
        <mxCell id="qctzH7rqazo4ZXe9pNT--12" value="" style="endArrow=classic;html=1;fontSize=16;entryX=0.5;entryY=1;entryDx=0;entryDy=0;exitX=0.5;exitY=0;exitDx=0;exitDy=0;dashed=1;strokeWidth=2;strokeColor=#6666FF;" parent="1" source="qctzH7rqazo4ZXe9pNT--1" target="qctzH7rqazo4ZXe9pNT--4" edge="1">
          <mxGeometry width="50" height="50" relative="1" as="geometry">
            <mxPoint x="1390" y="340" as="sourcePoint" />
            <mxPoint x="1060" y="250" as="targetPoint" />
          </mxGeometry>
        </mxCell>
        <mxCell id="qctzH7rqazo4ZXe9pNT--13" value="4.count" style="text;html=1;align=center;verticalAlign=middle;resizable=0;points=[];labelBackgroundColor=#ffffff;fontSize=16;" parent="qctzH7rqazo4ZXe9pNT--12" vertex="1" connectable="0">
          <mxGeometry x="0.066" y="-2" relative="1" as="geometry">
            <mxPoint x="-26.11" y="5.960000000000001" as="offset" />
          </mxGeometry>
        </mxCell>
        <mxCell id="qctzH7rqazo4ZXe9pNT--14" value="" style="endArrow=classic;html=1;fontSize=16;entryX=0.5;entryY=1;entryDx=0;entryDy=0;exitX=0.5;exitY=0;exitDx=0;exitDy=0;dashed=1;strokeWidth=2;strokeColor=#6666FF;" parent="1" source="qctzH7rqazo4ZXe9pNT--2" target="qctzH7rqazo4ZXe9pNT--4" edge="1">
          <mxGeometry width="50" height="50" relative="1" as="geometry">
            <mxPoint x="940" y="340" as="sourcePoint" />
            <mxPoint x="1270" y="250" as="targetPoint" />
          </mxGeometry>
        </mxCell>
        <mxCell id="qctzH7rqazo4ZXe9pNT--15" value="4.count" style="text;html=1;align=center;verticalAlign=middle;resizable=0;points=[];labelBackgroundColor=#ffffff;fontSize=16;" parent="qctzH7rqazo4ZXe9pNT--14" vertex="1" connectable="0">
          <mxGeometry x="0.066" y="-2" relative="1" as="geometry">
            <mxPoint x="-7.200000000000003" y="-10.400000000000002" as="offset" />
          </mxGeometry>
        </mxCell>
        <mxCell id="qctzH7rqazo4ZXe9pNT--16" value="" style="endArrow=classic;html=1;fontSize=16;entryX=0.5;entryY=0;entryDx=0;entryDy=0;exitX=0.5;exitY=1;exitDx=0;exitDy=0;dashed=1;strokeWidth=2;strokeColor=#6666FF;" parent="1" source="qctzH7rqazo4ZXe9pNT--5" target="qctzH7rqazo4ZXe9pNT--3" edge="1">
          <mxGeometry width="50" height="50" relative="1" as="geometry">
            <mxPoint x="1390" y="340" as="sourcePoint" />
            <mxPoint x="1060" y="250" as="targetPoint" />
          </mxGeometry>
        </mxCell>
        <mxCell id="qctzH7rqazo4ZXe9pNT--17" value="6.op" style="text;html=1;align=center;verticalAlign=middle;resizable=0;points=[];labelBackgroundColor=#ffffff;fontSize=16;" parent="qctzH7rqazo4ZXe9pNT--16" vertex="1" connectable="0">
          <mxGeometry x="0.066" y="-2" relative="1" as="geometry">
            <mxPoint x="-10.590000000000003" y="9.27" as="offset" />
          </mxGeometry>
        </mxCell>
        <mxCell id="qctzH7rqazo4ZXe9pNT--18" value="" style="endArrow=none;html=1;fontSize=16;entryX=0.5;entryY=0;entryDx=0;entryDy=0;exitX=0.5;exitY=1;exitDx=0;exitDy=0;dashed=1;strokeWidth=2;strokeColor=#6666FF;startArrow=classic;startFill=1;endFill=0;" parent="1" source="qctzH7rqazo4ZXe9pNT--5" target="qctzH7rqazo4ZXe9pNT--4" edge="1">
          <mxGeometry width="50" height="50" relative="1" as="geometry">
            <mxPoint x="1170" y="110" as="sourcePoint" />
            <mxPoint x="1060" y="190" as="targetPoint" />
          </mxGeometry>
        </mxCell>
        <mxCell id="qctzH7rqazo4ZXe9pNT--19" value="5.fetch" style="text;html=1;align=center;verticalAlign=middle;resizable=0;points=[];labelBackgroundColor=#ffffff;fontSize=16;" parent="qctzH7rqazo4ZXe9pNT--18" vertex="1" connectable="0">
          <mxGeometry x="0.066" y="-2" relative="1" as="geometry">
            <mxPoint x="8.149999999999995" y="5.959999999999999" as="offset" />
          </mxGeometry>
        </mxCell>
        <mxCell id="qctzH7rqazo4ZXe9pNT--20" value="" style="endArrow=none;html=1;fontSize=16;strokeWidth=2;strokeColor=#33FFFF;endFill=0;" parent="1" edge="1">
          <mxGeometry width="50" height="50" relative="1" as="geometry">
            <mxPoint x="1370" y="90" as="sourcePoint" />
            <mxPoint x="1440" y="90" as="targetPoint" />
          </mxGeometry>
        </mxCell>
        <mxCell id="qctzH7rqazo4ZXe9pNT--21" value="sync" style="text;html=1;align=center;verticalAlign=middle;resizable=0;points=[];labelBackgroundColor=#ffffff;fontSize=16;" parent="qctzH7rqazo4ZXe9pNT--20" vertex="1" connectable="0">
          <mxGeometry x="0.066" y="-2" relative="1" as="geometry">
            <mxPoint x="63" y="-2.0000000000000036" as="offset" />
          </mxGeometry>
        </mxCell>
        <mxCell id="qctzH7rqazo4ZXe9pNT--22" value="" style="endArrow=none;html=1;fontSize=16;strokeWidth=2;strokeColor=#0000FF;endFill=0;dashed=1;" parent="1" edge="1">
          <mxGeometry width="50" height="50" relative="1" as="geometry">
            <mxPoint x="1370" y="69.5" as="sourcePoint" />
            <mxPoint x="1440" y="69.5" as="targetPoint" />
          </mxGeometry>
        </mxCell>
        <mxCell id="qctzH7rqazo4ZXe9pNT--23" value="async" style="text;html=1;align=center;verticalAlign=middle;resizable=0;points=[];labelBackgroundColor=#ffffff;fontSize=16;" parent="qctzH7rqazo4ZXe9pNT--22" vertex="1" connectable="0">
          <mxGeometry x="0.066" y="-2" relative="1" as="geometry">
            <mxPoint x="63" y="-2.0000000000000036" as="offset" />
          </mxGeometry>
        </mxCell>
        <mxCell id="qctzH7rqazo4ZXe9pNT--25" value="" style="rounded=0;whiteSpace=wrap;html=1;fontSize=14;fillColor=none;dashed=1;strokeColor=#0000CC;" parent="1" vertex="1">
          <mxGeometry x="368" y="784" width="186" height="167" as="geometry" />
        </mxCell>
        <mxCell id="qctzH7rqazo4ZXe9pNT--26" value="" style="rounded=0;whiteSpace=wrap;html=1;fontSize=14;fillColor=none;dashed=1;strokeColor=#00CC00;" parent="1" vertex="1">
          <mxGeometry x="368" y="585" width="186" height="167" as="geometry" />
        </mxCell>
        <mxCell id="qctzH7rqazo4ZXe9pNT--27" value="" style="group" parent="1" vertex="1" connectable="0">
          <mxGeometry x="170" y="597" width="127" height="62" as="geometry" />
        </mxCell>
        <mxCell id="qctzH7rqazo4ZXe9pNT--28" value="192.168.0.1" style="rounded=0;whiteSpace=wrap;html=1;fontSize=14;fillColor=#dae8fc;strokeColor=#6c8ebf;" parent="qctzH7rqazo4ZXe9pNT--27" vertex="1">
          <mxGeometry width="127" height="43" as="geometry" />
        </mxCell>
        <mxCell id="qctzH7rqazo4ZXe9pNT--29" value="A1" style="text;html=1;align=center;verticalAlign=middle;resizable=0;points=[];autosize=1;strokeColor=none;fillColor=none;fontSize=14;" parent="qctzH7rqazo4ZXe9pNT--27" vertex="1">
          <mxGeometry x="53.5" y="41" width="27" height="21" as="geometry" />
        </mxCell>
        <mxCell id="qctzH7rqazo4ZXe9pNT--30" value="" style="group" parent="1" vertex="1" connectable="0">
          <mxGeometry x="170" y="791" width="127" height="62" as="geometry" />
        </mxCell>
        <mxCell id="qctzH7rqazo4ZXe9pNT--31" value="192.168.0.3" style="rounded=0;whiteSpace=wrap;html=1;fontSize=14;fillColor=#dae8fc;strokeColor=#6c8ebf;" parent="qctzH7rqazo4ZXe9pNT--30" vertex="1">
          <mxGeometry width="127" height="43" as="geometry" />
        </mxCell>
        <mxCell id="qctzH7rqazo4ZXe9pNT--32" value="B1" style="text;html=1;align=center;verticalAlign=middle;resizable=0;points=[];autosize=1;strokeColor=none;fillColor=none;fontSize=14;" parent="qctzH7rqazo4ZXe9pNT--30" vertex="1">
          <mxGeometry x="52.5" y="42" width="30" height="20" as="geometry" />
        </mxCell>
        <mxCell id="qctzH7rqazo4ZXe9pNT--33" value="" style="group" parent="1" vertex="1" connectable="0">
          <mxGeometry x="403" y="596" width="127" height="62" as="geometry" />
        </mxCell>
        <mxCell id="qctzH7rqazo4ZXe9pNT--34" value="192.168.0.10" style="rounded=0;whiteSpace=wrap;html=1;fontSize=14;fillColor=#e1d5e7;strokeColor=#9673a6;" parent="qctzH7rqazo4ZXe9pNT--33" vertex="1">
          <mxGeometry width="127" height="43" as="geometry" />
        </mxCell>
        <mxCell id="qctzH7rqazo4ZXe9pNT--35" value="S1,group=正常" style="text;html=1;align=center;verticalAlign=middle;resizable=0;points=[];autosize=1;strokeColor=none;fillColor=none;fontSize=14;" parent="qctzH7rqazo4ZXe9pNT--33" vertex="1">
          <mxGeometry x="12" y="41" width="103" height="21" as="geometry" />
        </mxCell>
        <mxCell id="qctzH7rqazo4ZXe9pNT--36" value="" style="group" parent="1" vertex="1" connectable="0">
          <mxGeometry x="403" y="682" width="127" height="62" as="geometry" />
        </mxCell>
        <mxCell id="qctzH7rqazo4ZXe9pNT--37" value="192.168.0.11" style="rounded=0;whiteSpace=wrap;html=1;fontSize=14;fillColor=#e1d5e7;strokeColor=#9673a6;" parent="qctzH7rqazo4ZXe9pNT--36" vertex="1">
          <mxGeometry width="127" height="43" as="geometry" />
        </mxCell>
        <mxCell id="qctzH7rqazo4ZXe9pNT--38" value="S2,group=正常" style="text;html=1;align=center;verticalAlign=middle;resizable=0;points=[];autosize=1;strokeColor=none;fillColor=none;fontSize=14;" parent="qctzH7rqazo4ZXe9pNT--36" vertex="1">
          <mxGeometry x="12" y="41" width="103" height="21" as="geometry" />
        </mxCell>
        <mxCell id="qctzH7rqazo4ZXe9pNT--39" value="" style="group" parent="1" vertex="1" connectable="0">
          <mxGeometry x="403" y="791" width="127" height="62" as="geometry" />
        </mxCell>
        <mxCell id="qctzH7rqazo4ZXe9pNT--40" value="192.168.0.12" style="rounded=0;whiteSpace=wrap;html=1;fontSize=14;fillColor=#e1d5e7;strokeColor=#9673a6;" parent="qctzH7rqazo4ZXe9pNT--39" vertex="1">
          <mxGeometry width="127" height="43" as="geometry" />
        </mxCell>
        <mxCell id="qctzH7rqazo4ZXe9pNT--41" value="S3,group=活动" style="text;html=1;align=center;verticalAlign=middle;resizable=0;points=[];autosize=1;strokeColor=none;fillColor=none;fontSize=14;" parent="qctzH7rqazo4ZXe9pNT--39" vertex="1">
          <mxGeometry x="12.5" y="41" width="103" height="21" as="geometry" />
        </mxCell>
        <mxCell id="qctzH7rqazo4ZXe9pNT--42" value="" style="group" parent="1" vertex="1" connectable="0">
          <mxGeometry x="403" y="877" width="127" height="62" as="geometry" />
        </mxCell>
        <mxCell id="qctzH7rqazo4ZXe9pNT--43" value="192.168.0.13" style="rounded=0;whiteSpace=wrap;html=1;fontSize=14;fillColor=#e1d5e7;strokeColor=#9673a6;" parent="qctzH7rqazo4ZXe9pNT--42" vertex="1">
          <mxGeometry width="127" height="43" as="geometry" />
        </mxCell>
        <mxCell id="qctzH7rqazo4ZXe9pNT--44" value="S4,group=活动" style="text;html=1;align=center;verticalAlign=middle;resizable=0;points=[];autosize=1;strokeColor=none;fillColor=none;fontSize=14;" parent="qctzH7rqazo4ZXe9pNT--42" vertex="1">
          <mxGeometry x="12.5" y="41" width="103" height="21" as="geometry" />
        </mxCell>
        <mxCell id="qctzH7rqazo4ZXe9pNT--45" value="" style="endArrow=classic;html=1;rounded=0;fontSize=14;exitX=1;exitY=0.5;exitDx=0;exitDy=0;entryX=0;entryY=0.5;entryDx=0;entryDy=0;" parent="1" source="qctzH7rqazo4ZXe9pNT--28" target="qctzH7rqazo4ZXe9pNT--34" edge="1">
          <mxGeometry width="50" height="50" relative="1" as="geometry">
            <mxPoint x="348" y="562" as="sourcePoint" />
            <mxPoint x="398" y="512" as="targetPoint" />
          </mxGeometry>
        </mxCell>
        <mxCell id="qctzH7rqazo4ZXe9pNT--46" value="" style="endArrow=classic;html=1;rounded=0;fontSize=14;exitX=1;exitY=0.5;exitDx=0;exitDy=0;entryX=0;entryY=0.5;entryDx=0;entryDy=0;" parent="1" source="qctzH7rqazo4ZXe9pNT--28" target="qctzH7rqazo4ZXe9pNT--37" edge="1">
          <mxGeometry width="50" height="50" relative="1" as="geometry">
            <mxPoint x="307" y="682.5" as="sourcePoint" />
            <mxPoint x="413" y="627.5" as="targetPoint" />
          </mxGeometry>
        </mxCell>
        <mxCell id="qctzH7rqazo4ZXe9pNT--47" value="" style="endArrow=classic;html=1;rounded=0;fontSize=14;exitX=1;exitY=0.5;exitDx=0;exitDy=0;entryX=0;entryY=0.5;entryDx=0;entryDy=0;strokeColor=#000000;" parent="1" source="qctzH7rqazo4ZXe9pNT--31" target="qctzH7rqazo4ZXe9pNT--40" edge="1">
          <mxGeometry width="50" height="50" relative="1" as="geometry">
            <mxPoint x="307" y="701.5" as="sourcePoint" />
            <mxPoint x="413" y="732.5" as="targetPoint" />
          </mxGeometry>
        </mxCell>
        <mxCell id="qctzH7rqazo4ZXe9pNT--48" value="" style="endArrow=classic;html=1;rounded=0;fontSize=14;exitX=1;exitY=0.5;exitDx=0;exitDy=0;entryX=0;entryY=0.5;entryDx=0;entryDy=0;strokeColor=#000000;" parent="1" source="qctzH7rqazo4ZXe9pNT--31" target="qctzH7rqazo4ZXe9pNT--43" edge="1">
          <mxGeometry width="50" height="50" relative="1" as="geometry">
            <mxPoint x="307" y="856.5" as="sourcePoint" />
            <mxPoint x="413" y="822.5" as="targetPoint" />
          </mxGeometry>
        </mxCell>
        <mxCell id="qctzH7rqazo4ZXe9pNT--49" value="正常分组" style="text;html=1;align=center;verticalAlign=middle;resizable=0;points=[];autosize=1;strokeColor=none;fillColor=none;fontSize=14;" parent="1" vertex="1">
          <mxGeometry x="563" y="658" width="66" height="21" as="geometry" />
        </mxCell>
        <mxCell id="qctzH7rqazo4ZXe9pNT--50" value="活动分组" style="text;html=1;align=center;verticalAlign=middle;resizable=0;points=[];autosize=1;strokeColor=none;fillColor=none;fontSize=14;" parent="1" vertex="1">
          <mxGeometry x="576" y="857" width="66" height="21" as="geometry" />
        </mxCell>
        <mxCell id="qctzH7rqazo4ZXe9pNT--57" value="" style="group" parent="1" vertex="1" connectable="0">
          <mxGeometry x="170" y="681" width="127" height="62" as="geometry" />
        </mxCell>
        <mxCell id="qctzH7rqazo4ZXe9pNT--58" value="192.168.0.2" style="rounded=0;whiteSpace=wrap;html=1;fontSize=14;fillColor=#dae8fc;strokeColor=#6c8ebf;" parent="qctzH7rqazo4ZXe9pNT--57" vertex="1">
          <mxGeometry width="127" height="43" as="geometry" />
        </mxCell>
        <mxCell id="qctzH7rqazo4ZXe9pNT--59" value="A2" style="text;html=1;align=center;verticalAlign=middle;resizable=0;points=[];autosize=1;strokeColor=none;fillColor=none;fontSize=14;" parent="qctzH7rqazo4ZXe9pNT--57" vertex="1">
          <mxGeometry x="52.5" y="42" width="30" height="20" as="geometry" />
        </mxCell>
        <mxCell id="qctzH7rqazo4ZXe9pNT--60" value="" style="endArrow=classic;html=1;rounded=0;fontSize=14;exitX=1;exitY=0.5;exitDx=0;exitDy=0;entryX=0;entryY=0.5;entryDx=0;entryDy=0;" parent="1" source="qctzH7rqazo4ZXe9pNT--58" target="qctzH7rqazo4ZXe9pNT--34" edge="1">
          <mxGeometry width="50" height="50" relative="1" as="geometry">
            <mxPoint x="307" y="628.5" as="sourcePoint" />
            <mxPoint x="413" y="627.5" as="targetPoint" />
          </mxGeometry>
        </mxCell>
        <mxCell id="qctzH7rqazo4ZXe9pNT--61" value="" style="endArrow=classic;html=1;rounded=0;fontSize=14;exitX=1;exitY=0.5;exitDx=0;exitDy=0;entryX=0;entryY=0.5;entryDx=0;entryDy=0;" parent="1" source="qctzH7rqazo4ZXe9pNT--58" target="qctzH7rqazo4ZXe9pNT--37" edge="1">
          <mxGeometry width="50" height="50" relative="1" as="geometry">
            <mxPoint x="307" y="628.5" as="sourcePoint" />
            <mxPoint x="413" y="713.5" as="targetPoint" />
          </mxGeometry>
        </mxCell>
        <mxCell id="qctzH7rqazo4ZXe9pNT--62" value="" style="group" parent="1" vertex="1" connectable="0">
          <mxGeometry x="170" y="877" width="127" height="62" as="geometry" />
        </mxCell>
        <mxCell id="qctzH7rqazo4ZXe9pNT--63" value="192.168.0.4" style="rounded=0;whiteSpace=wrap;html=1;fontSize=14;fillColor=#dae8fc;strokeColor=#6c8ebf;" parent="qctzH7rqazo4ZXe9pNT--62" vertex="1">
          <mxGeometry width="127" height="43" as="geometry" />
        </mxCell>
        <mxCell id="qctzH7rqazo4ZXe9pNT--64" value="B2" style="text;html=1;align=center;verticalAlign=middle;resizable=0;points=[];autosize=1;strokeColor=none;fillColor=none;fontSize=14;" parent="qctzH7rqazo4ZXe9pNT--62" vertex="1">
          <mxGeometry x="53.5" y="41" width="27" height="21" as="geometry" />
        </mxCell>
        <mxCell id="qctzH7rqazo4ZXe9pNT--65" value="" style="endArrow=classic;html=1;rounded=0;fontSize=14;exitX=1;exitY=0.5;exitDx=0;exitDy=0;entryX=0;entryY=0.5;entryDx=0;entryDy=0;strokeColor=#000000;" parent="1" source="qctzH7rqazo4ZXe9pNT--63" target="qctzH7rqazo4ZXe9pNT--40" edge="1">
          <mxGeometry width="50" height="50" relative="1" as="geometry">
            <mxPoint x="307" y="822.5" as="sourcePoint" />
            <mxPoint x="413" y="822.5" as="targetPoint" />
          </mxGeometry>
        </mxCell>
        <mxCell id="qctzH7rqazo4ZXe9pNT--66" value="" style="endArrow=classic;html=1;rounded=0;fontSize=14;exitX=1;exitY=0.5;exitDx=0;exitDy=0;entryX=0;entryY=0.5;entryDx=0;entryDy=0;strokeColor=#000000;" parent="1" source="qctzH7rqazo4ZXe9pNT--63" target="qctzH7rqazo4ZXe9pNT--43" edge="1">
          <mxGeometry width="50" height="50" relative="1" as="geometry">
            <mxPoint x="307" y="822.5" as="sourcePoint" />
            <mxPoint x="413" y="908.5" as="targetPoint" />
          </mxGeometry>
        </mxCell>
        <mxCell id="Z84fSyqLUMB_H-DxXF72-1" value="192.168.0.1&lt;br&gt;C1" style="rounded=1;whiteSpace=wrap;html=1;fillColor=#dae8fc;fontSize=16;strokeColor=#6c8ebf;strokeWidth=2;fontStyle=1" parent="1" vertex="1">
          <mxGeometry x="100" y="1390" width="120" height="60" as="geometry" />
        </mxCell>
        <mxCell id="Z84fSyqLUMB_H-DxXF72-2" value="192.168.1.1&lt;br&gt;S1" style="rounded=1;whiteSpace=wrap;html=1;fillColor=#d5e8d4;fontSize=16;strokeColor=#82b366;strokeWidth=2;fontStyle=1" parent="1" vertex="1">
          <mxGeometry x="792" y="1390" width="120" height="60" as="geometry" />
        </mxCell>
        <mxCell id="Z84fSyqLUMB_H-DxXF72-3" value="注册中心" style="rounded=1;whiteSpace=wrap;html=1;fillColor=#e1d5e7;fontSize=16;strokeColor=#9673a6;strokeWidth=2;fontStyle=1" parent="1" vertex="1">
          <mxGeometry x="304" y="1240" width="120" height="60" as="geometry" />
        </mxCell>
        <mxCell id="Z84fSyqLUMB_H-DxXF72-4" value="监控" style="rounded=1;whiteSpace=wrap;html=1;fillColor=#e1d5e7;fontSize=16;strokeColor=#9673a6;strokeWidth=2;fontStyle=1" parent="1" vertex="1">
          <mxGeometry x="541" y="1240" width="120" height="60" as="geometry" />
        </mxCell>
        <mxCell id="Z84fSyqLUMB_H-DxXF72-8" value="" style="endArrow=none;html=1;fontSize=16;entryX=0.5;entryY=1;entryDx=0;entryDy=0;exitX=1;exitY=0.5;exitDx=0;exitDy=0;dashed=1;strokeWidth=2;strokeColor=#6666FF;startArrow=classic;startFill=1;endFill=0;fontStyle=0" parent="1" source="Z84fSyqLUMB_H-DxXF72-1" target="Z84fSyqLUMB_H-DxXF72-3" edge="1">
          <mxGeometry width="50" height="50" relative="1" as="geometry">
            <mxPoint x="560" y="1430" as="sourcePoint" />
            <mxPoint x="290" y="1310" as="targetPoint" />
          </mxGeometry>
        </mxCell>
        <mxCell id="Z84fSyqLUMB_H-DxXF72-9" value="&lt;font style=&quot;font-size: 14px&quot;&gt;4️⃣&amp;nbsp; 向所有调用方下发限流指令&lt;/font&gt;" style="text;html=1;align=center;verticalAlign=middle;resizable=0;points=[];labelBackgroundColor=#ffffff;fontSize=16;fontStyle=1" parent="Z84fSyqLUMB_H-DxXF72-8" vertex="1" connectable="0">
          <mxGeometry x="-0.6533" y="3" relative="1" as="geometry">
            <mxPoint x="61" y="-32" as="offset" />
          </mxGeometry>
        </mxCell>
        <mxCell id="Z84fSyqLUMB_H-DxXF72-10" value="" style="endArrow=classic;html=1;fontSize=16;entryX=0;entryY=0.5;entryDx=0;entryDy=0;exitX=1;exitY=0.5;exitDx=0;exitDy=0;strokeWidth=2;strokeColor=#000000;fontStyle=0" parent="1" source="Z84fSyqLUMB_H-DxXF72-1" target="Z84fSyqLUMB_H-DxXF72-2" edge="1">
          <mxGeometry width="50" height="50" relative="1" as="geometry">
            <mxPoint x="620" y="1400" as="sourcePoint" />
            <mxPoint x="290" y="1310" as="targetPoint" />
          </mxGeometry>
        </mxCell>
        <mxCell id="Z84fSyqLUMB_H-DxXF72-14" value="" style="endArrow=classic;html=1;fontSize=16;entryX=0.5;entryY=1;entryDx=0;entryDy=0;exitX=0;exitY=0.5;exitDx=0;exitDy=0;dashed=1;strokeWidth=2;strokeColor=#6666FF;fontStyle=0" parent="1" source="Z84fSyqLUMB_H-DxXF72-2" target="Z84fSyqLUMB_H-DxXF72-4" edge="1">
          <mxGeometry width="50" height="50" relative="1" as="geometry">
            <mxPoint x="170" y="1400" as="sourcePoint" />
            <mxPoint x="500" y="1310" as="targetPoint" />
          </mxGeometry>
        </mxCell>
        <mxCell id="Z84fSyqLUMB_H-DxXF72-15" value="&lt;font style=&quot;font-size: 14px&quot;&gt;1️⃣&amp;nbsp; 定时每10s上报调用量（UDP）&lt;/font&gt;" style="text;html=1;align=center;verticalAlign=middle;resizable=0;points=[];labelBackgroundColor=#ffffff;fontSize=16;fontStyle=1" parent="Z84fSyqLUMB_H-DxXF72-14" vertex="1" connectable="0">
          <mxGeometry x="0.066" y="-2" relative="1" as="geometry">
            <mxPoint x="-6" y="6" as="offset" />
          </mxGeometry>
        </mxCell>
        <mxCell id="Z84fSyqLUMB_H-DxXF72-24" value="192.168.0.2&lt;br&gt;C2" style="rounded=1;whiteSpace=wrap;html=1;fillColor=#dae8fc;fontSize=16;strokeColor=#6c8ebf;strokeWidth=2;fontStyle=1" parent="1" vertex="1">
          <mxGeometry x="100" y="1570" width="120" height="60" as="geometry" />
        </mxCell>
        <mxCell id="Z84fSyqLUMB_H-DxXF72-25" value="192.168.1.2&lt;br&gt;S2" style="rounded=1;whiteSpace=wrap;html=1;fillColor=#d5e8d4;fontSize=16;strokeColor=#82b366;strokeWidth=2;fontStyle=1" parent="1" vertex="1">
          <mxGeometry x="791" y="1570" width="120" height="60" as="geometry" />
        </mxCell>
        <mxCell id="Z84fSyqLUMB_H-DxXF72-28" value="" style="endArrow=classic;html=1;fontSize=16;entryX=0;entryY=0.5;entryDx=0;entryDy=0;exitX=1;exitY=0.5;exitDx=0;exitDy=0;strokeWidth=2;strokeColor=#000000;fontStyle=0" parent="1" source="Z84fSyqLUMB_H-DxXF72-1" target="Z84fSyqLUMB_H-DxXF72-25" edge="1">
          <mxGeometry width="50" height="50" relative="1" as="geometry">
            <mxPoint x="230" y="1430" as="sourcePoint" />
            <mxPoint x="560" y="1430" as="targetPoint" />
          </mxGeometry>
        </mxCell>
        <mxCell id="Z84fSyqLUMB_H-DxXF72-29" value="" style="endArrow=classic;html=1;fontSize=16;entryX=0;entryY=0.5;entryDx=0;entryDy=0;exitX=1;exitY=0.5;exitDx=0;exitDy=0;strokeWidth=2;strokeColor=#000000;fontStyle=0" parent="1" source="Z84fSyqLUMB_H-DxXF72-24" target="Z84fSyqLUMB_H-DxXF72-2" edge="1">
          <mxGeometry width="50" height="50" relative="1" as="geometry">
            <mxPoint x="230" y="1430" as="sourcePoint" />
            <mxPoint x="559" y="1570" as="targetPoint" />
          </mxGeometry>
        </mxCell>
        <mxCell id="Z84fSyqLUMB_H-DxXF72-30" value="" style="endArrow=classic;html=1;fontSize=16;entryX=0;entryY=0.5;entryDx=0;entryDy=0;exitX=1;exitY=0.5;exitDx=0;exitDy=0;strokeWidth=2;strokeColor=#000000;fontStyle=0" parent="1" source="Z84fSyqLUMB_H-DxXF72-24" target="Z84fSyqLUMB_H-DxXF72-25" edge="1">
          <mxGeometry width="50" height="50" relative="1" as="geometry">
            <mxPoint x="230" y="1610" as="sourcePoint" />
            <mxPoint x="560" y="1470" as="targetPoint" />
          </mxGeometry>
        </mxCell>
        <mxCell id="Z84fSyqLUMB_H-DxXF72-31" value="" style="endArrow=classic;html=1;fontSize=16;exitX=0;exitY=0.5;exitDx=0;exitDy=0;dashed=1;strokeWidth=2;strokeColor=#6666FF;entryX=0.5;entryY=1;entryDx=0;entryDy=0;fontStyle=0" parent="1" source="Z84fSyqLUMB_H-DxXF72-25" target="Z84fSyqLUMB_H-DxXF72-4" edge="1">
          <mxGeometry width="50" height="50" relative="1" as="geometry">
            <mxPoint x="750" y="1430" as="sourcePoint" />
            <mxPoint x="570" y="1320" as="targetPoint" />
          </mxGeometry>
        </mxCell>
        <mxCell id="Z84fSyqLUMB_H-DxXF72-33" value="" style="endArrow=none;html=1;fontSize=16;entryX=0.5;entryY=1;entryDx=0;entryDy=0;exitX=1;exitY=0.5;exitDx=0;exitDy=0;dashed=1;strokeWidth=2;strokeColor=#6666FF;startArrow=classic;startFill=1;endFill=0;fontStyle=0" parent="1" source="Z84fSyqLUMB_H-DxXF72-24" target="Z84fSyqLUMB_H-DxXF72-3" edge="1">
          <mxGeometry width="50" height="50" relative="1" as="geometry">
            <mxPoint x="230" y="1430" as="sourcePoint" />
            <mxPoint x="380" y="1310" as="targetPoint" />
          </mxGeometry>
        </mxCell>
        <mxCell id="Z84fSyqLUMB_H-DxXF72-35" value="" style="endArrow=classic;html=1;fontSize=16;exitX=0;exitY=0.5;exitDx=0;exitDy=0;dashed=1;strokeWidth=1;strokeColor=#6666FF;entryX=1;entryY=0.5;entryDx=0;entryDy=0;" parent="1" source="Z84fSyqLUMB_H-DxXF72-4" target="Z84fSyqLUMB_H-DxXF72-3" edge="1">
          <mxGeometry width="50" height="50" relative="1" as="geometry">
            <mxPoint x="749" y="1610" as="sourcePoint" />
            <mxPoint x="590" y="1310" as="targetPoint" />
          </mxGeometry>
        </mxCell>
        <mxCell id="Z84fSyqLUMB_H-DxXF72-36" value="&lt;font style=&quot;font-size: 14px&quot;&gt;3️⃣&amp;nbsp; 下发限流指令&lt;/font&gt;" style="text;html=1;align=center;verticalAlign=middle;resizable=0;points=[];labelBackgroundColor=#ffffff;fontSize=16;fontStyle=1" parent="Z84fSyqLUMB_H-DxXF72-35" vertex="1" connectable="0">
          <mxGeometry x="0.066" y="-2" relative="1" as="geometry">
            <mxPoint x="6" y="-13" as="offset" />
          </mxGeometry>
        </mxCell>
        <mxCell id="Z84fSyqLUMB_H-DxXF72-37" value="&lt;font style=&quot;font-size: 16px&quot;&gt;Redis&lt;/font&gt;" style="shape=cylinder3;whiteSpace=wrap;html=1;boundedLbl=1;backgroundOutline=1;size=15;fillColor=#f5f5f5;strokeColor=#666666;fontColor=#333333;strokeWidth=2;fontStyle=1" parent="1" vertex="1">
          <mxGeometry x="829" y="1230" width="60" height="80" as="geometry" />
        </mxCell>
        <mxCell id="Z84fSyqLUMB_H-DxXF72-38" value="" style="endArrow=classic;html=1;fontSize=16;entryX=0;entryY=0.5;entryDx=0;entryDy=0;exitX=1;exitY=0.5;exitDx=0;exitDy=0;strokeWidth=1;strokeColor=#000000;entryPerimeter=0;" parent="1" source="Z84fSyqLUMB_H-DxXF72-4" target="Z84fSyqLUMB_H-DxXF72-37" edge="1">
          <mxGeometry width="50" height="50" relative="1" as="geometry">
            <mxPoint x="230" y="1430" as="sourcePoint" />
            <mxPoint x="749" y="1610" as="targetPoint" />
          </mxGeometry>
        </mxCell>
        <mxCell id="Z84fSyqLUMB_H-DxXF72-41" value="&lt;font style=&quot;font-size: 14px&quot;&gt;2️⃣&amp;nbsp; 写入全局缓存，并判断&lt;/font&gt;" style="text;html=1;align=center;verticalAlign=middle;resizable=0;points=[];autosize=1;strokeColor=none;fillColor=none;fontSize=16;fontStyle=1" parent="1" vertex="1">
          <mxGeometry x="649" y="1245" width="190" height="30" as="geometry" />
        </mxCell>
        <mxCell id="Z84fSyqLUMB_H-DxXF72-42" value="&lt;span style=&quot;font-size: 14px&quot;&gt;5️⃣&amp;nbsp; 当前分钟停止调用，抛出异常&lt;/span&gt;" style="text;html=1;align=center;verticalAlign=middle;resizable=0;points=[];labelBackgroundColor=#ffffff;fontSize=16;fontStyle=1" parent="1" vertex="1" connectable="0">
          <mxGeometry x="161.00252774812256" y="1459.9994353719444" as="geometry" />
        </mxCell>
        <mxCell id="Z84fSyqLUMB_H-DxXF72-45" value="&lt;span style=&quot;font-size: 14px&quot;&gt;5️⃣&amp;nbsp; 当前分钟停止调用，抛出异常&lt;/span&gt;" style="text;html=1;align=center;verticalAlign=middle;resizable=0;points=[];labelBackgroundColor=#ffffff;fontSize=16;fontStyle=1" parent="1" vertex="1" connectable="0">
          <mxGeometry x="160.00252774812256" y="1639.9994353719444" as="geometry" />
        </mxCell>
        <mxCell id="IMRiH2Jyy75GKOMvcvbp-1" value="调用方" style="rounded=1;whiteSpace=wrap;html=1;fillColor=#d5e8d4;fontSize=16;strokeColor=#82b366;fontColor=#FFFFFF;" parent="1" vertex="1">
          <mxGeometry x="1600" y="340" width="120" height="60" as="geometry" />
        </mxCell>
        <mxCell id="IMRiH2Jyy75GKOMvcvbp-2" value="服务方" style="rounded=1;whiteSpace=wrap;html=1;fillColor=#d5e8d4;fontSize=16;strokeColor=#82b366;fontColor=#FFFFFF;" parent="1" vertex="1">
          <mxGeometry x="2050" y="340" width="120" height="60" as="geometry" />
        </mxCell>
        <mxCell id="IMRiH2Jyy75GKOMvcvbp-3" value="注册中心" style="rounded=1;whiteSpace=wrap;html=1;fillColor=#e1d5e7;fontSize=16;strokeColor=#9673a6;fontColor=#FFFFFF;" parent="1" vertex="1">
          <mxGeometry x="1720" y="190" width="120" height="60" as="geometry" />
        </mxCell>
        <mxCell id="IMRiH2Jyy75GKOMvcvbp-4" value="监控" style="rounded=1;whiteSpace=wrap;html=1;fillColor=#e1d5e7;fontSize=16;strokeColor=#9673a6;fontColor=#FFFFFF;" parent="1" vertex="1">
          <mxGeometry x="1930" y="190" width="120" height="60" as="geometry" />
        </mxCell>
        <mxCell id="IMRiH2Jyy75GKOMvcvbp-5" value="管理平台" style="rounded=1;whiteSpace=wrap;html=1;fillColor=#e1d5e7;fontSize=16;strokeColor=#9673a6;fontColor=#FFFFFF;" parent="1" vertex="1">
          <mxGeometry x="1830" y="50" width="120" height="60" as="geometry" />
        </mxCell>
        <mxCell id="IMRiH2Jyy75GKOMvcvbp-6" value="" style="endArrow=classic;html=1;fontSize=16;entryX=0.5;entryY=1;entryDx=0;entryDy=0;exitX=0.5;exitY=0;exitDx=0;exitDy=0;dashed=1;strokeWidth=2;strokeColor=#FFFFFF;" parent="1" source="IMRiH2Jyy75GKOMvcvbp-2" target="IMRiH2Jyy75GKOMvcvbp-3" edge="1">
          <mxGeometry width="50" height="50" relative="1" as="geometry">
            <mxPoint x="1850" y="430" as="sourcePoint" />
            <mxPoint x="1900" y="380" as="targetPoint" />
          </mxGeometry>
        </mxCell>
        <mxCell id="IMRiH2Jyy75GKOMvcvbp-7" value="1.registry" style="text;html=1;align=center;verticalAlign=middle;resizable=0;points=[];labelBackgroundColor=none;fontSize=16;fontColor=#FFFFFF;" parent="IMRiH2Jyy75GKOMvcvbp-6" vertex="1" connectable="0">
          <mxGeometry x="0.066" y="-2" relative="1" as="geometry">
            <mxPoint x="65.06" y="19.82" as="offset" />
          </mxGeometry>
        </mxCell>
        <mxCell id="IMRiH2Jyy75GKOMvcvbp-8" value="" style="endArrow=none;html=1;fontSize=16;entryX=0.5;entryY=1;entryDx=0;entryDy=0;exitX=0.5;exitY=0;exitDx=0;exitDy=0;dashed=1;strokeWidth=2;strokeColor=#FFFFFF;startArrow=classic;startFill=1;endFill=0;" parent="1" source="IMRiH2Jyy75GKOMvcvbp-1" target="IMRiH2Jyy75GKOMvcvbp-3" edge="1">
          <mxGeometry width="50" height="50" relative="1" as="geometry">
            <mxPoint x="2060" y="380" as="sourcePoint" />
            <mxPoint x="1790" y="260" as="targetPoint" />
          </mxGeometry>
        </mxCell>
        <mxCell id="IMRiH2Jyy75GKOMvcvbp-9" value="&lt;font style=&quot;color: rgb(255, 255, 255);&quot;&gt;2.notify&lt;/font&gt;" style="text;html=1;align=center;verticalAlign=middle;resizable=0;points=[];labelBackgroundColor=none;fontSize=16;fontColor=#FFFFFF;" parent="IMRiH2Jyy75GKOMvcvbp-8" vertex="1" connectable="0">
          <mxGeometry x="-0.6533" y="3" relative="1" as="geometry">
            <mxPoint x="41" y="-32" as="offset" />
          </mxGeometry>
        </mxCell>
        <mxCell id="IMRiH2Jyy75GKOMvcvbp-10" value="" style="endArrow=classic;html=1;fontSize=16;entryX=0;entryY=0.5;entryDx=0;entryDy=0;exitX=1;exitY=0.5;exitDx=0;exitDy=0;strokeWidth=2;strokeColor=#FF0000;" parent="1" source="IMRiH2Jyy75GKOMvcvbp-1" target="IMRiH2Jyy75GKOMvcvbp-2" edge="1">
          <mxGeometry width="50" height="50" relative="1" as="geometry">
            <mxPoint x="2120" y="350" as="sourcePoint" />
            <mxPoint x="1790" y="260" as="targetPoint" />
          </mxGeometry>
        </mxCell>
        <mxCell id="IMRiH2Jyy75GKOMvcvbp-11" value="3.invoke" style="text;html=1;align=center;verticalAlign=middle;resizable=0;points=[];labelBackgroundColor=none;fontSize=16;fontColor=#FFFFFF;" parent="IMRiH2Jyy75GKOMvcvbp-10" vertex="1" connectable="0">
          <mxGeometry x="0.066" y="-2" relative="1" as="geometry">
            <mxPoint x="-16" y="-15.000000000000004" as="offset" />
          </mxGeometry>
        </mxCell>
        <mxCell id="IMRiH2Jyy75GKOMvcvbp-12" value="" style="endArrow=classic;html=1;fontSize=16;entryX=0.5;entryY=1;entryDx=0;entryDy=0;exitX=0.5;exitY=0;exitDx=0;exitDy=0;dashed=1;strokeWidth=2;strokeColor=#FFFFFF;" parent="1" source="IMRiH2Jyy75GKOMvcvbp-1" target="IMRiH2Jyy75GKOMvcvbp-4" edge="1">
          <mxGeometry width="50" height="50" relative="1" as="geometry">
            <mxPoint x="2120" y="350" as="sourcePoint" />
            <mxPoint x="1790" y="260" as="targetPoint" />
          </mxGeometry>
        </mxCell>
        <mxCell id="IMRiH2Jyy75GKOMvcvbp-13" value="4.count" style="text;html=1;align=center;verticalAlign=middle;resizable=0;points=[];labelBackgroundColor=none;fontSize=16;fontColor=#FFFFFF;" parent="IMRiH2Jyy75GKOMvcvbp-12" vertex="1" connectable="0">
          <mxGeometry x="0.066" y="-2" relative="1" as="geometry">
            <mxPoint x="-26.11" y="5.960000000000001" as="offset" />
          </mxGeometry>
        </mxCell>
        <mxCell id="IMRiH2Jyy75GKOMvcvbp-14" value="" style="endArrow=classic;html=1;fontSize=16;entryX=0.5;entryY=1;entryDx=0;entryDy=0;exitX=0.5;exitY=0;exitDx=0;exitDy=0;dashed=1;strokeWidth=2;strokeColor=#FFFFFF;" parent="1" source="IMRiH2Jyy75GKOMvcvbp-2" target="IMRiH2Jyy75GKOMvcvbp-4" edge="1">
          <mxGeometry width="50" height="50" relative="1" as="geometry">
            <mxPoint x="1670" y="350" as="sourcePoint" />
            <mxPoint x="2000" y="260" as="targetPoint" />
          </mxGeometry>
        </mxCell>
        <mxCell id="IMRiH2Jyy75GKOMvcvbp-15" value="4.count" style="text;html=1;align=center;verticalAlign=middle;resizable=0;points=[];labelBackgroundColor=none;fontSize=16;fontColor=#FFFFFF;" parent="IMRiH2Jyy75GKOMvcvbp-14" vertex="1" connectable="0">
          <mxGeometry x="0.066" y="-2" relative="1" as="geometry">
            <mxPoint x="-7.200000000000003" y="-10.400000000000002" as="offset" />
          </mxGeometry>
        </mxCell>
        <mxCell id="IMRiH2Jyy75GKOMvcvbp-16" value="" style="endArrow=classic;html=1;fontSize=16;entryX=0.5;entryY=0;entryDx=0;entryDy=0;exitX=0.5;exitY=1;exitDx=0;exitDy=0;dashed=1;strokeWidth=2;strokeColor=#FFFFFF;" parent="1" source="IMRiH2Jyy75GKOMvcvbp-5" target="IMRiH2Jyy75GKOMvcvbp-3" edge="1">
          <mxGeometry width="50" height="50" relative="1" as="geometry">
            <mxPoint x="2120" y="350" as="sourcePoint" />
            <mxPoint x="1790" y="260" as="targetPoint" />
          </mxGeometry>
        </mxCell>
        <mxCell id="IMRiH2Jyy75GKOMvcvbp-17" value="6.op" style="text;html=1;align=center;verticalAlign=middle;resizable=0;points=[];labelBackgroundColor=none;fontSize=16;fontColor=#FFFFFF;" parent="IMRiH2Jyy75GKOMvcvbp-16" vertex="1" connectable="0">
          <mxGeometry x="0.066" y="-2" relative="1" as="geometry">
            <mxPoint x="-10.590000000000003" y="9.27" as="offset" />
          </mxGeometry>
        </mxCell>
        <mxCell id="IMRiH2Jyy75GKOMvcvbp-18" value="" style="endArrow=none;html=1;fontSize=16;entryX=0.5;entryY=0;entryDx=0;entryDy=0;exitX=0.5;exitY=1;exitDx=0;exitDy=0;dashed=1;strokeWidth=2;strokeColor=#FFFFFF;startArrow=classic;startFill=1;endFill=0;" parent="1" source="IMRiH2Jyy75GKOMvcvbp-5" target="IMRiH2Jyy75GKOMvcvbp-4" edge="1">
          <mxGeometry width="50" height="50" relative="1" as="geometry">
            <mxPoint x="1900" y="120" as="sourcePoint" />
            <mxPoint x="1790" y="200" as="targetPoint" />
          </mxGeometry>
        </mxCell>
        <mxCell id="IMRiH2Jyy75GKOMvcvbp-19" value="5.fetch" style="text;html=1;align=center;verticalAlign=middle;resizable=0;points=[];labelBackgroundColor=none;fontSize=16;fontColor=#FFFFFF;" parent="IMRiH2Jyy75GKOMvcvbp-18" vertex="1" connectable="0">
          <mxGeometry x="0.066" y="-2" relative="1" as="geometry">
            <mxPoint x="8.149999999999995" y="5.959999999999999" as="offset" />
          </mxGeometry>
        </mxCell>
        <mxCell id="rssOyNdwKdreHG8hD41S-1" style="orthogonalLoop=1;jettySize=auto;html=1;exitX=1;exitY=0.25;exitDx=0;exitDy=0;entryX=0;entryY=0.5;entryDx=0;entryDy=0;rounded=0;fontSize=18;startArrow=classic;startFill=1;strokeColor=#00FF00;" parent="1" source="rssOyNdwKdreHG8hD41S-3" target="rssOyNdwKdreHG8hD41S-4" edge="1">
          <mxGeometry relative="1" as="geometry" />
        </mxCell>
        <mxCell id="rssOyNdwKdreHG8hD41S-2" style="edgeStyle=none;rounded=0;orthogonalLoop=1;jettySize=auto;html=1;entryX=0;entryY=0.5;entryDx=0;entryDy=0;exitX=1;exitY=0.5;exitDx=0;exitDy=0;fontSize=18;startArrow=classic;startFill=1;strokeColor=#00FF00;" parent="1" source="rssOyNdwKdreHG8hD41S-3" target="rssOyNdwKdreHG8hD41S-5" edge="1">
          <mxGeometry relative="1" as="geometry" />
        </mxCell>
        <mxCell id="rssOyNdwKdreHG8hD41S-3" value="C" style="rounded=1;whiteSpace=wrap;html=1;fontSize=18;fillColor=#d5e8d4;strokeColor=#82b366;" parent="1" vertex="1">
          <mxGeometry x="70" y="2090" width="120" height="60" as="geometry" />
        </mxCell>
        <mxCell id="rssOyNdwKdreHG8hD41S-4" value="S1" style="rounded=1;whiteSpace=wrap;html=1;fontSize=18;fillColor=#dae8fc;strokeColor=#6c8ebf;" parent="1" vertex="1">
          <mxGeometry x="410" y="1920" width="120" height="60" as="geometry" />
        </mxCell>
        <mxCell id="rssOyNdwKdreHG8hD41S-5" value="S2" style="rounded=1;whiteSpace=wrap;html=1;fontSize=18;fillColor=#dae8fc;strokeColor=#6c8ebf;" parent="1" vertex="1">
          <mxGeometry x="410" y="2090" width="120" height="60" as="geometry" />
        </mxCell>
        <mxCell id="rssOyNdwKdreHG8hD41S-6" value="S3" style="rounded=1;whiteSpace=wrap;html=1;fontSize=18;fillColor=#dae8fc;strokeColor=#6c8ebf;" parent="1" vertex="1">
          <mxGeometry x="410" y="2260" width="120" height="60" as="geometry" />
        </mxCell>
        <mxCell id="rssOyNdwKdreHG8hD41S-7" value="20%" style="text;html=1;resizable=0;autosize=1;align=center;verticalAlign=middle;points=[];fillColor=none;strokeColor=none;rounded=0;fontSize=18;fontColor=#00FF00;" parent="1" vertex="1">
          <mxGeometry x="275" y="2090" width="50" height="30" as="geometry" />
        </mxCell>
        <mxCell id="rssOyNdwKdreHG8hD41S-8" style="orthogonalLoop=1;jettySize=auto;html=1;exitX=1;exitY=0.75;exitDx=0;exitDy=0;entryX=0;entryY=0.5;entryDx=0;entryDy=0;rounded=0;fontSize=18;startArrow=classic;startFill=1;strokeColor=#00FF00;" parent="1" source="rssOyNdwKdreHG8hD41S-3" target="rssOyNdwKdreHG8hD41S-6" edge="1">
          <mxGeometry relative="1" as="geometry">
            <mxPoint x="200" y="2115" as="sourcePoint" />
            <mxPoint x="420" y="1960" as="targetPoint" />
          </mxGeometry>
        </mxCell>
        <mxCell id="rssOyNdwKdreHG8hD41S-9" value="40%" style="text;html=1;resizable=0;autosize=1;align=center;verticalAlign=middle;points=[];fillColor=none;strokeColor=none;rounded=0;fontSize=18;fontColor=#00FF00;rotation=-30;" parent="1" vertex="1">
          <mxGeometry x="275" y="1990" width="50" height="30" as="geometry" />
        </mxCell>
        <mxCell id="rssOyNdwKdreHG8hD41S-10" value="40%" style="text;html=1;resizable=0;autosize=1;align=center;verticalAlign=middle;points=[];fillColor=none;strokeColor=none;rounded=0;fontSize=18;fontColor=#00FF00;rotation=30;" parent="1" vertex="1">
          <mxGeometry x="275" y="2170" width="50" height="30" as="geometry" />
        </mxCell>
        <mxCell id="rssOyNdwKdreHG8hD41S-11" value="1000" style="text;html=1;resizable=0;autosize=1;align=center;verticalAlign=middle;points=[];fillColor=none;strokeColor=none;rounded=0;fontSize=18;fontColor=#00FF00;" parent="1" vertex="1">
          <mxGeometry x="440" y="1980" width="60" height="30" as="geometry" />
        </mxCell>
        <mxCell id="rssOyNdwKdreHG8hD41S-12" value="500" style="text;html=1;resizable=0;autosize=1;align=center;verticalAlign=middle;points=[];fillColor=none;strokeColor=none;rounded=0;fontSize=18;fontColor=#00FF00;" parent="1" vertex="1">
          <mxGeometry x="445" y="2150" width="50" height="30" as="geometry" />
        </mxCell>
        <mxCell id="rssOyNdwKdreHG8hD41S-13" value="1000" style="text;html=1;resizable=0;autosize=1;align=center;verticalAlign=middle;points=[];fillColor=none;strokeColor=none;rounded=0;fontSize=18;fontColor=#00FF00;" parent="1" vertex="1">
          <mxGeometry x="440" y="2330" width="60" height="30" as="geometry" />
        </mxCell>
        <mxCell id="rssOyNdwKdreHG8hD41S-14" style="orthogonalLoop=1;jettySize=auto;html=1;exitX=1;exitY=0.25;exitDx=0;exitDy=0;entryX=0;entryY=0.5;entryDx=0;entryDy=0;rounded=0;fontSize=18;startArrow=none;startFill=0;strokeColor=#000000;strokeWidth=2;" parent="1" source="rssOyNdwKdreHG8hD41S-16" target="rssOyNdwKdreHG8hD41S-17" edge="1">
          <mxGeometry relative="1" as="geometry" />
        </mxCell>
        <mxCell id="rssOyNdwKdreHG8hD41S-15" style="edgeStyle=none;rounded=0;orthogonalLoop=1;jettySize=auto;html=1;entryX=0;entryY=0.5;entryDx=0;entryDy=0;exitX=1;exitY=0.5;exitDx=0;exitDy=0;fontSize=18;startArrow=none;startFill=0;strokeColor=#000000;strokeWidth=2;" parent="1" source="rssOyNdwKdreHG8hD41S-16" target="rssOyNdwKdreHG8hD41S-18" edge="1">
          <mxGeometry relative="1" as="geometry" />
        </mxCell>
        <mxCell id="rssOyNdwKdreHG8hD41S-16" value="&lt;b&gt;C&lt;/b&gt;" style="rounded=1;whiteSpace=wrap;html=1;fontSize=18;fillColor=#d5e8d4;strokeColor=#82b366;strokeWidth=2;" parent="1" vertex="1">
          <mxGeometry x="830" y="2090" width="120" height="60" as="geometry" />
        </mxCell>
        <mxCell id="rssOyNdwKdreHG8hD41S-17" value="&lt;b&gt;S1&lt;/b&gt;" style="rounded=1;whiteSpace=wrap;html=1;fontSize=18;fillColor=#dae8fc;strokeColor=#6c8ebf;strokeWidth=2;" parent="1" vertex="1">
          <mxGeometry x="1170" y="1920" width="120" height="60" as="geometry" />
        </mxCell>
        <mxCell id="rssOyNdwKdreHG8hD41S-18" value="&lt;b&gt;S2&lt;/b&gt;" style="rounded=1;whiteSpace=wrap;html=1;fontSize=18;fillColor=#dae8fc;strokeColor=#6c8ebf;strokeWidth=2;" parent="1" vertex="1">
          <mxGeometry x="1170" y="2090" width="120" height="60" as="geometry" />
        </mxCell>
        <mxCell id="rssOyNdwKdreHG8hD41S-19" value="&lt;b&gt;S3&lt;/b&gt;" style="rounded=1;whiteSpace=wrap;html=1;fontSize=18;fillColor=#dae8fc;strokeColor=#6c8ebf;strokeWidth=2;" parent="1" vertex="1">
          <mxGeometry x="1170" y="2260" width="120" height="60" as="geometry" />
        </mxCell>
        <mxCell id="rssOyNdwKdreHG8hD41S-20" value="20%" style="text;html=1;resizable=0;autosize=1;align=center;verticalAlign=middle;points=[];fillColor=none;strokeColor=none;rounded=0;fontSize=18;fontColor=#3333FF;fontStyle=1" parent="1" vertex="1">
          <mxGeometry x="1030" y="2085" width="60" height="40" as="geometry" />
        </mxCell>
        <mxCell id="rssOyNdwKdreHG8hD41S-21" style="orthogonalLoop=1;jettySize=auto;html=1;exitX=1;exitY=0.75;exitDx=0;exitDy=0;entryX=0;entryY=0.5;entryDx=0;entryDy=0;rounded=0;fontSize=18;startArrow=none;startFill=0;strokeColor=#000000;strokeWidth=2;" parent="1" source="rssOyNdwKdreHG8hD41S-16" target="rssOyNdwKdreHG8hD41S-19" edge="1">
          <mxGeometry relative="1" as="geometry">
            <mxPoint x="960" y="2115" as="sourcePoint" />
            <mxPoint x="1180" y="1960" as="targetPoint" />
          </mxGeometry>
        </mxCell>
        <mxCell id="rssOyNdwKdreHG8hD41S-22" value="40%" style="text;html=1;resizable=0;autosize=1;align=center;verticalAlign=middle;points=[];fillColor=none;strokeColor=none;rounded=0;fontSize=18;fontColor=#3333FF;rotation=-30;fontStyle=1" parent="1" vertex="1">
          <mxGeometry x="1030" y="1985" width="60" height="40" as="geometry" />
        </mxCell>
        <mxCell id="rssOyNdwKdreHG8hD41S-23" value="40%" style="text;html=1;resizable=0;autosize=1;align=center;verticalAlign=middle;points=[];fillColor=none;strokeColor=none;rounded=0;fontSize=18;fontColor=#3333FF;rotation=30;fontStyle=1" parent="1" vertex="1">
          <mxGeometry x="1030" y="2165" width="60" height="40" as="geometry" />
        </mxCell>
        <mxCell id="rssOyNdwKdreHG8hD41S-24" value="1000" style="text;html=1;resizable=0;autosize=1;align=center;verticalAlign=middle;points=[];fillColor=none;strokeColor=none;rounded=0;fontSize=18;fontColor=#3333FF;fontStyle=1" parent="1" vertex="1">
          <mxGeometry x="1200" y="1975" width="60" height="40" as="geometry" />
        </mxCell>
        <mxCell id="rssOyNdwKdreHG8hD41S-25" value="500" style="text;html=1;resizable=0;autosize=1;align=center;verticalAlign=middle;points=[];fillColor=none;strokeColor=none;rounded=0;fontSize=18;fontColor=#3333FF;fontStyle=1" parent="1" vertex="1">
          <mxGeometry x="1205" y="2145" width="50" height="40" as="geometry" />
        </mxCell>
        <mxCell id="rssOyNdwKdreHG8hD41S-26" value="1000" style="text;html=1;resizable=0;autosize=1;align=center;verticalAlign=middle;points=[];fillColor=none;strokeColor=none;rounded=0;fontSize=18;fontColor=#3333FF;fontStyle=1" parent="1" vertex="1">
          <mxGeometry x="1200" y="2325" width="60" height="40" as="geometry" />
        </mxCell>
        <mxCell id="rssOyNdwKdreHG8hD41S-54" value="" style="rounded=0;whiteSpace=wrap;html=1;fillColor=none;strokeWidth=2;sketch=1;curveFitting=1;jiggle=2;" parent="1" vertex="1">
          <mxGeometry x="424" y="-310" width="160" height="120" as="geometry" />
        </mxCell>
        <mxCell id="rssOyNdwKdreHG8hD41S-55" value="" style="endArrow=none;html=1;rounded=0;strokeWidth=2;sketch=1;curveFitting=1;jiggle=2;" parent="1" edge="1">
          <mxGeometry width="50" height="50" relative="1" as="geometry">
            <mxPoint x="503.5" y="-210" as="sourcePoint" />
            <mxPoint x="503.5" y="-290" as="targetPoint" />
          </mxGeometry>
        </mxCell>
        <mxCell id="rssOyNdwKdreHG8hD41S-56" value="" style="endArrow=none;html=1;rounded=0;strokeWidth=2;sketch=1;curveFitting=1;jiggle=2;" parent="1" edge="1">
          <mxGeometry width="50" height="50" relative="1" as="geometry">
            <mxPoint x="564" y="-210" as="sourcePoint" />
            <mxPoint x="564" y="-290" as="targetPoint" />
          </mxGeometry>
        </mxCell>
        <mxCell id="rssOyNdwKdreHG8hD41S-57" value="&lt;font size=&quot;1&quot; style=&quot;&quot;&gt;&lt;b style=&quot;&quot;&gt;1 序列化&lt;/b&gt;&lt;/font&gt;" style="text;html=1;align=center;verticalAlign=middle;resizable=0;points=[];autosize=1;strokeColor=none;fillColor=none;sketch=1;curveFitting=1;jiggle=2;" parent="1" vertex="1">
          <mxGeometry x="497" y="-298" width="70" height="30" as="geometry" />
        </mxCell>
        <mxCell id="rssOyNdwKdreHG8hD41S-58" value="" style="endArrow=classic;html=1;rounded=0;strokeWidth=2;sketch=1;curveFitting=1;jiggle=2;fillColor=#f8cecc;strokeColor=#b85450;" parent="1" edge="1">
          <mxGeometry width="50" height="50" relative="1" as="geometry">
            <mxPoint x="504" y="-270" as="sourcePoint" />
            <mxPoint x="564" y="-270" as="targetPoint" />
          </mxGeometry>
        </mxCell>
        <mxCell id="rssOyNdwKdreHG8hD41S-59" value="" style="rounded=0;whiteSpace=wrap;html=1;fillColor=none;strokeWidth=2;sketch=1;curveFitting=1;jiggle=2;" parent="1" vertex="1">
          <mxGeometry x="744" y="-310" width="160" height="120" as="geometry" />
        </mxCell>
        <mxCell id="rssOyNdwKdreHG8hD41S-60" value="" style="endArrow=none;html=1;rounded=0;strokeWidth=2;sketch=1;curveFitting=1;jiggle=2;" parent="1" edge="1">
          <mxGeometry width="50" height="50" relative="1" as="geometry">
            <mxPoint x="760.5" y="-210" as="sourcePoint" />
            <mxPoint x="760.5" y="-290" as="targetPoint" />
          </mxGeometry>
        </mxCell>
        <mxCell id="rssOyNdwKdreHG8hD41S-61" value="" style="endArrow=none;html=1;rounded=0;strokeWidth=2;sketch=1;curveFitting=1;jiggle=2;strokeColor=#3333FF;" parent="1" edge="1">
          <mxGeometry width="50" height="50" relative="1" as="geometry">
            <mxPoint x="821" y="-210" as="sourcePoint" />
            <mxPoint x="821" y="-290" as="targetPoint" />
          </mxGeometry>
        </mxCell>
        <mxCell id="rssOyNdwKdreHG8hD41S-62" value="&lt;font size=&quot;1&quot; style=&quot;&quot;&gt;&lt;b style=&quot;&quot;&gt;3 反序列化&lt;/b&gt;&lt;/font&gt;" style="text;html=1;align=center;verticalAlign=middle;resizable=0;points=[];autosize=1;strokeColor=none;fillColor=none;sketch=1;curveFitting=1;jiggle=2;" parent="1" vertex="1">
          <mxGeometry x="749" y="-298" width="80" height="30" as="geometry" />
        </mxCell>
        <mxCell id="rssOyNdwKdreHG8hD41S-63" value="" style="endArrow=classic;html=1;rounded=0;strokeWidth=2;sketch=1;curveFitting=1;jiggle=2;fillColor=#f8cecc;strokeColor=#b85450;" parent="1" edge="1">
          <mxGeometry width="50" height="50" relative="1" as="geometry">
            <mxPoint x="761" y="-270" as="sourcePoint" />
            <mxPoint x="821" y="-270" as="targetPoint" />
          </mxGeometry>
        </mxCell>
        <mxCell id="rssOyNdwKdreHG8hD41S-64" value="" style="endArrow=classic;html=1;rounded=0;strokeWidth=2;entryX=0.163;entryY=0.967;entryDx=0;entryDy=0;entryPerimeter=0;sketch=1;curveFitting=1;jiggle=2;fillColor=#d5e8d4;strokeColor=#82b366;" parent="1" target="rssOyNdwKdreHG8hD41S-62" edge="1">
          <mxGeometry width="50" height="50" relative="1" as="geometry">
            <mxPoint x="564" y="-269" as="sourcePoint" />
            <mxPoint x="624" y="-269" as="targetPoint" />
          </mxGeometry>
        </mxCell>
        <mxCell id="rssOyNdwKdreHG8hD41S-65" value="" style="curved=1;endArrow=classic;html=1;rounded=0;exitX=0.9;exitY=0.967;exitDx=0;exitDy=0;exitPerimeter=0;strokeWidth=2;sketch=1;curveFitting=1;jiggle=2;fillColor=#e1d5e7;strokeColor=#9673a6;" parent="1" source="rssOyNdwKdreHG8hD41S-62" edge="1">
          <mxGeometry width="50" height="50" relative="1" as="geometry">
            <mxPoint x="584" y="-20" as="sourcePoint" />
            <mxPoint x="821" y="-230" as="targetPoint" />
            <Array as="points">
              <mxPoint x="844" y="-270" />
              <mxPoint x="874" y="-260" />
              <mxPoint x="864" y="-230" />
            </Array>
          </mxGeometry>
        </mxCell>
        <mxCell id="rssOyNdwKdreHG8hD41S-66" value="&lt;font size=&quot;1&quot; style=&quot;&quot;&gt;&lt;b style=&quot;&quot;&gt;7 反序列化&lt;/b&gt;&lt;/font&gt;" style="text;html=1;align=center;verticalAlign=middle;resizable=0;points=[];autosize=1;strokeColor=none;fillColor=none;sketch=1;curveFitting=1;jiggle=2;" parent="1" vertex="1">
          <mxGeometry x="492" y="-260" width="80" height="30" as="geometry" />
        </mxCell>
        <mxCell id="rssOyNdwKdreHG8hD41S-67" value="" style="endArrow=none;html=1;rounded=0;strokeWidth=2;startArrow=classic;startFill=1;endFill=0;sketch=1;curveFitting=1;jiggle=2;fillColor=#f8cecc;strokeColor=#b85450;" parent="1" edge="1">
          <mxGeometry width="50" height="50" relative="1" as="geometry">
            <mxPoint x="504" y="-232" as="sourcePoint" />
            <mxPoint x="564" y="-232" as="targetPoint" />
          </mxGeometry>
        </mxCell>
        <mxCell id="rssOyNdwKdreHG8hD41S-68" value="&lt;font size=&quot;1&quot; style=&quot;&quot;&gt;&lt;b style=&quot;&quot;&gt;5 序列化&lt;/b&gt;&lt;/font&gt;" style="text;html=1;align=center;verticalAlign=middle;resizable=0;points=[];autosize=1;strokeColor=none;fillColor=none;sketch=1;curveFitting=1;jiggle=2;" parent="1" vertex="1">
          <mxGeometry x="754" y="-260" width="70" height="30" as="geometry" />
        </mxCell>
        <mxCell id="rssOyNdwKdreHG8hD41S-69" value="" style="endArrow=none;html=1;rounded=0;strokeWidth=2;endFill=0;startArrow=classic;startFill=1;sketch=1;curveFitting=1;jiggle=2;fillColor=#f8cecc;strokeColor=#b85450;" parent="1" edge="1">
          <mxGeometry width="50" height="50" relative="1" as="geometry">
            <mxPoint x="761" y="-232" as="sourcePoint" />
            <mxPoint x="821" y="-232" as="targetPoint" />
          </mxGeometry>
        </mxCell>
        <mxCell id="rssOyNdwKdreHG8hD41S-70" value="" style="endArrow=none;html=1;rounded=0;strokeWidth=2;entryX=0.163;entryY=0.967;entryDx=0;entryDy=0;entryPerimeter=0;startArrow=classic;startFill=1;endFill=0;sketch=1;curveFitting=1;jiggle=2;fillColor=#d5e8d4;strokeColor=#82b366;" parent="1" target="rssOyNdwKdreHG8hD41S-68" edge="1">
          <mxGeometry width="50" height="50" relative="1" as="geometry">
            <mxPoint x="564" y="-231" as="sourcePoint" />
            <mxPoint x="624" y="-231" as="targetPoint" />
          </mxGeometry>
        </mxCell>
        <mxCell id="rssOyNdwKdreHG8hD41S-71" value="&lt;b style=&quot;&quot;&gt;&lt;font style=&quot;font-size: 12px;&quot;&gt;2 发送&lt;/font&gt;&lt;/b&gt;" style="text;html=1;align=center;verticalAlign=middle;resizable=0;points=[];autosize=1;strokeColor=none;fillColor=none;sketch=1;curveFitting=1;jiggle=2;" parent="1" vertex="1">
          <mxGeometry x="639" y="-298" width="60" height="30" as="geometry" />
        </mxCell>
        <mxCell id="rssOyNdwKdreHG8hD41S-72" value="&lt;font size=&quot;1&quot; style=&quot;&quot;&gt;&lt;b style=&quot;font-size: 20px;&quot;&gt;调用方&lt;/b&gt;&lt;/font&gt;" style="text;html=1;align=center;verticalAlign=middle;resizable=0;points=[];autosize=1;strokeColor=none;fillColor=none;sketch=1;curveFitting=1;jiggle=2;" parent="1" vertex="1">
          <mxGeometry x="464" y="-190" width="80" height="40" as="geometry" />
        </mxCell>
        <mxCell id="rssOyNdwKdreHG8hD41S-73" value="&lt;font size=&quot;1&quot; style=&quot;&quot;&gt;&lt;b style=&quot;font-size: 20px;&quot;&gt;服务方&lt;/b&gt;&lt;/font&gt;" style="text;html=1;align=center;verticalAlign=middle;resizable=0;points=[];autosize=1;strokeColor=none;fillColor=none;sketch=1;curveFitting=1;jiggle=2;" parent="1" vertex="1">
          <mxGeometry x="784" y="-190" width="80" height="40" as="geometry" />
        </mxCell>
        <mxCell id="rssOyNdwKdreHG8hD41S-74" value="&lt;font color=&quot;#ff0000&quot; style=&quot;font-size: 14px;&quot;&gt;&lt;b&gt;超时时间=100ms&lt;/b&gt;&lt;/font&gt;" style="text;html=1;align=center;verticalAlign=middle;resizable=0;points=[];autosize=1;strokeColor=none;fillColor=none;sketch=1;curveFitting=1;jiggle=2;" parent="1" vertex="1">
          <mxGeometry x="442" y="-380" width="130" height="30" as="geometry" />
        </mxCell>
        <mxCell id="rssOyNdwKdreHG8hD41S-75" value="" style="endArrow=classic;html=1;rounded=0;strokeWidth=2;entryX=0.071;entryY=0.267;entryDx=0;entryDy=0;entryPerimeter=0;sketch=1;curveFitting=1;jiggle=2;fillColor=#d5e8d4;strokeColor=#FF0000;dashed=1;" parent="1" target="rssOyNdwKdreHG8hD41S-57" edge="1">
          <mxGeometry width="50" height="50" relative="1" as="geometry">
            <mxPoint x="502" y="-360" as="sourcePoint" />
            <mxPoint x="902" y="-400" as="targetPoint" />
          </mxGeometry>
        </mxCell>
        <mxCell id="rssOyNdwKdreHG8hD41S-76" value="&lt;font color=&quot;#ff0000&quot; style=&quot;font-size: 14px;&quot;&gt;&lt;b&gt;平均执行耗时=1.5ms&lt;/b&gt;&lt;/font&gt;" style="text;html=1;align=center;verticalAlign=middle;resizable=0;points=[];autosize=1;strokeColor=none;fillColor=none;sketch=1;curveFitting=1;jiggle=2;" parent="1" vertex="1">
          <mxGeometry x="764" y="-380" width="160" height="30" as="geometry" />
        </mxCell>
        <mxCell id="rssOyNdwKdreHG8hD41S-77" value="" style="endArrow=classic;html=1;rounded=0;strokeWidth=2;sketch=1;curveFitting=1;jiggle=2;fillColor=#d5e8d4;strokeColor=#FF0000;dashed=1;" parent="1" edge="1">
          <mxGeometry width="50" height="50" relative="1" as="geometry">
            <mxPoint x="854" y="-360" as="sourcePoint" />
            <mxPoint x="854" y="-270" as="targetPoint" />
          </mxGeometry>
        </mxCell>
        <mxCell id="rssOyNdwKdreHG8hD41S-78" value="&lt;b style=&quot;&quot;&gt;&lt;font style=&quot;font-size: 12px;&quot;&gt;4 执行&lt;/font&gt;&lt;/b&gt;" style="text;html=1;align=center;verticalAlign=middle;resizable=0;points=[];autosize=1;strokeColor=none;fillColor=none;sketch=1;curveFitting=1;jiggle=2;" parent="1" vertex="1">
          <mxGeometry x="844" y="-230" width="60" height="30" as="geometry" />
        </mxCell>
        <mxCell id="rssOyNdwKdreHG8hD41S-79" value="&lt;b style=&quot;&quot;&gt;&lt;font style=&quot;font-size: 12px;&quot;&gt;6 发回&lt;/font&gt;&lt;/b&gt;" style="text;html=1;align=center;verticalAlign=middle;resizable=0;points=[];autosize=1;strokeColor=none;fillColor=none;sketch=1;curveFitting=1;jiggle=2;" parent="1" vertex="1">
          <mxGeometry x="639" y="-260" width="60" height="30" as="geometry" />
        </mxCell>
        <mxCell id="rssOyNdwKdreHG8hD41S-80" value="&lt;b style=&quot;&quot;&gt;&lt;font style=&quot;font-size: 12px;&quot;&gt;分界点&lt;/font&gt;&lt;/b&gt;" style="text;html=1;align=center;verticalAlign=middle;resizable=0;points=[];autosize=1;strokeColor=none;fillColor=none;sketch=1;curveFitting=1;jiggle=2;" parent="1" vertex="1">
          <mxGeometry x="792" y="-215" width="60" height="30" as="geometry" />
        </mxCell>
        <mxCell id="rssOyNdwKdreHG8hD41S-81" style="edgeStyle=none;rounded=0;orthogonalLoop=1;jettySize=auto;html=1;entryX=0;entryY=0.5;entryDx=0;entryDy=0;exitX=1;exitY=0.5;exitDx=0;exitDy=0;fontSize=18;startArrow=none;startFill=0;strokeColor=#99FF99;" parent="1" source="rssOyNdwKdreHG8hD41S-82" target="rssOyNdwKdreHG8hD41S-83" edge="1">
          <mxGeometry relative="1" as="geometry" />
        </mxCell>
        <mxCell id="rssOyNdwKdreHG8hD41S-82" value="C" style="rounded=1;whiteSpace=wrap;html=1;fontSize=18;fillColor=#d5e8d4;strokeColor=#82b366;" parent="1" vertex="1">
          <mxGeometry x="215" y="2610" width="67" height="60" as="geometry" />
        </mxCell>
        <mxCell id="rssOyNdwKdreHG8hD41S-83" value="S" style="rounded=1;whiteSpace=wrap;html=1;fontSize=18;fillColor=#dae8fc;strokeColor=#6c8ebf;" parent="1" vertex="1">
          <mxGeometry x="546" y="2610" width="59" height="60" as="geometry" />
        </mxCell>
        <mxCell id="rssOyNdwKdreHG8hD41S-84" value="&lt;font style=&quot;font-size: 14px&quot; color=&quot;#00ff00&quot;&gt;UserService.getUserById()&lt;/font&gt;" style="text;html=1;align=center;verticalAlign=middle;resizable=0;points=[];autosize=1;strokeColor=none;fillColor=none;" parent="1" vertex="1">
          <mxGeometry x="361" y="2620" width="180" height="20" as="geometry" />
        </mxCell>
        <mxCell id="rssOyNdwKdreHG8hD41S-85" style="edgeStyle=orthogonalEdgeStyle;rounded=0;orthogonalLoop=1;jettySize=auto;html=1;exitX=1;exitY=0.5;exitDx=0;exitDy=0;entryX=0.5;entryY=1;entryDx=0;entryDy=0;fontSize=14;startArrow=none;startFill=0;fillColor=#d5e8d4;strokeColor=#00FF00;" parent="1" source="rssOyNdwKdreHG8hD41S-82" target="rssOyNdwKdreHG8hD41S-82" edge="1">
          <mxGeometry relative="1" as="geometry">
            <Array as="points">
              <mxPoint x="335" y="2640" />
              <mxPoint x="335" y="2710" />
              <mxPoint x="249" y="2710" />
            </Array>
          </mxGeometry>
        </mxCell>
        <mxCell id="rssOyNdwKdreHG8hD41S-86" value="&lt;font style=&quot;font-size: 14px&quot; color=&quot;#00ff00&quot;&gt;UserService&lt;/font&gt;&lt;font style=&quot;font-size: 14px&quot; color=&quot;#ff0000&quot;&gt;Fallback&lt;/font&gt;&lt;font style=&quot;font-size: 14px&quot; color=&quot;#00ff00&quot;&gt;.getUserById()&lt;/font&gt;" style="text;html=1;align=center;verticalAlign=middle;resizable=0;points=[];autosize=1;strokeColor=none;fillColor=none;" parent="1" vertex="1">
          <mxGeometry x="170" y="2720" width="230" height="20" as="geometry" />
        </mxCell>
        <mxCell id="rssOyNdwKdreHG8hD41S-87" value="&lt;font color=&quot;#00ff00&quot;&gt;RPC&lt;/font&gt;" style="text;html=1;align=center;verticalAlign=middle;resizable=0;points=[];autosize=1;strokeColor=none;fillColor=none;fontSize=14;fontColor=#FF0000;" parent="1" vertex="1">
          <mxGeometry x="421" y="2640" width="50" height="20" as="geometry" />
        </mxCell>
        <mxCell id="rssOyNdwKdreHG8hD41S-88" value="&lt;font color=&quot;#00ff00&quot;&gt;Local&lt;/font&gt;" style="text;html=1;align=center;verticalAlign=middle;resizable=0;points=[];autosize=1;strokeColor=none;fillColor=none;fontSize=14;fontColor=#FF0000;" parent="1" vertex="1">
          <mxGeometry x="255" y="2690" width="50" height="20" as="geometry" />
        </mxCell>
        <mxCell id="rssOyNdwKdreHG8hD41S-89" value="" style="endArrow=classic;html=1;rounded=0;fontSize=14;fontColor=#FF0000;strokeColor=#FF00FF;" parent="1" edge="1">
          <mxGeometry width="50" height="50" relative="1" as="geometry">
            <mxPoint x="255" y="2560" as="sourcePoint" />
            <mxPoint x="335" y="2640" as="targetPoint" />
          </mxGeometry>
        </mxCell>
        <mxCell id="rssOyNdwKdreHG8hD41S-90" value="" style="endArrow=classic;html=1;rounded=0;fontSize=14;fontColor=#FF0000;strokeColor=#FF00FF;" parent="1" edge="1">
          <mxGeometry width="50" height="50" relative="1" as="geometry">
            <mxPoint x="335" y="2560" as="sourcePoint" />
            <mxPoint x="335" y="2640" as="targetPoint" />
          </mxGeometry>
        </mxCell>
        <mxCell id="rssOyNdwKdreHG8hD41S-91" value="" style="endArrow=classic;html=1;rounded=0;fontSize=14;fontColor=#FF0000;strokeColor=#FF00FF;" parent="1" edge="1">
          <mxGeometry width="50" height="50" relative="1" as="geometry">
            <mxPoint x="415" y="2560" as="sourcePoint" />
            <mxPoint x="335" y="2640" as="targetPoint" />
          </mxGeometry>
        </mxCell>
        <mxCell id="rssOyNdwKdreHG8hD41S-92" value="&lt;font color=&quot;#ff00ff&quot;&gt;熔断&lt;/font&gt;" style="text;html=1;align=center;verticalAlign=middle;resizable=0;points=[];autosize=1;strokeColor=none;fillColor=none;fontSize=14;fontColor=#FF0000;" parent="1" vertex="1">
          <mxGeometry x="225" y="2540" width="40" height="20" as="geometry" />
        </mxCell>
        <mxCell id="rssOyNdwKdreHG8hD41S-93" value="&lt;font color=&quot;#ff00ff&quot;&gt;降级&lt;/font&gt;" style="text;html=1;align=center;verticalAlign=middle;resizable=0;points=[];autosize=1;strokeColor=none;fillColor=none;fontSize=14;fontColor=#FF0000;" parent="1" vertex="1">
          <mxGeometry x="315" y="2540" width="40" height="20" as="geometry" />
        </mxCell>
        <mxCell id="rssOyNdwKdreHG8hD41S-94" value="&lt;font color=&quot;#ff00ff&quot;&gt;异常&lt;/font&gt;" style="text;html=1;align=center;verticalAlign=middle;resizable=0;points=[];autosize=1;strokeColor=none;fillColor=none;fontSize=14;fontColor=#FF0000;" parent="1" vertex="1">
          <mxGeometry x="400" y="2540" width="40" height="20" as="geometry" />
        </mxCell>
        <mxCell id="rssOyNdwKdreHG8hD41S-95" style="edgeStyle=orthogonalEdgeStyle;rounded=0;orthogonalLoop=1;jettySize=auto;html=1;exitX=0.5;exitY=1;exitDx=0;exitDy=0;entryX=0.5;entryY=0;entryDx=0;entryDy=0;dashed=1;dashPattern=1 2;startArrow=none;startFill=0;endArrow=none;endFill=0;" parent="1" source="rssOyNdwKdreHG8hD41S-96" target="rssOyNdwKdreHG8hD41S-106" edge="1">
          <mxGeometry relative="1" as="geometry" />
        </mxCell>
        <mxCell id="rssOyNdwKdreHG8hD41S-96" value="LoggerFilter" style="rounded=1;whiteSpace=wrap;html=1;" parent="1" vertex="1">
          <mxGeometry x="210" y="2940" width="120" height="40" as="geometry" />
        </mxCell>
        <mxCell id="rssOyNdwKdreHG8hD41S-97" style="edgeStyle=orthogonalEdgeStyle;rounded=0;orthogonalLoop=1;jettySize=auto;html=1;exitX=0.5;exitY=1;exitDx=0;exitDy=0;entryX=0.5;entryY=0;entryDx=0;entryDy=0;startArrow=none;startFill=0;endArrow=none;endFill=0;dashed=1;dashPattern=1 2;" parent="1" source="rssOyNdwKdreHG8hD41S-98" target="rssOyNdwKdreHG8hD41S-108" edge="1">
          <mxGeometry relative="1" as="geometry" />
        </mxCell>
        <mxCell id="rssOyNdwKdreHG8hD41S-98" value="TraceFilter" style="rounded=1;whiteSpace=wrap;html=1;" parent="1" vertex="1">
          <mxGeometry x="360" y="2940" width="120" height="40" as="geometry" />
        </mxCell>
        <mxCell id="rssOyNdwKdreHG8hD41S-99" style="edgeStyle=orthogonalEdgeStyle;rounded=0;orthogonalLoop=1;jettySize=auto;html=1;exitX=0.5;exitY=1;exitDx=0;exitDy=0;entryX=0.5;entryY=0;entryDx=0;entryDy=0;dashed=1;dashPattern=1 2;startArrow=none;startFill=0;endArrow=none;endFill=0;" parent="1" source="rssOyNdwKdreHG8hD41S-100" target="rssOyNdwKdreHG8hD41S-110" edge="1">
          <mxGeometry relative="1" as="geometry" />
        </mxCell>
        <mxCell id="rssOyNdwKdreHG8hD41S-100" value="RpcContextFilter" style="rounded=1;whiteSpace=wrap;html=1;" parent="1" vertex="1">
          <mxGeometry x="510" y="2940" width="120" height="40" as="geometry" />
        </mxCell>
        <mxCell id="rssOyNdwKdreHG8hD41S-101" style="edgeStyle=orthogonalEdgeStyle;rounded=0;orthogonalLoop=1;jettySize=auto;html=1;exitX=0.5;exitY=1;exitDx=0;exitDy=0;entryX=0.5;entryY=0;entryDx=0;entryDy=0;dashed=1;dashPattern=1 2;startArrow=none;startFill=0;endArrow=none;endFill=0;" parent="1" source="rssOyNdwKdreHG8hD41S-102" target="rssOyNdwKdreHG8hD41S-112" edge="1">
          <mxGeometry relative="1" as="geometry" />
        </mxCell>
        <mxCell id="rssOyNdwKdreHG8hD41S-102" value="TransmittableContext&lt;br&gt;Filter" style="rounded=1;whiteSpace=wrap;html=1;" parent="1" vertex="1">
          <mxGeometry x="660" y="2940" width="120" height="40" as="geometry" />
        </mxCell>
        <mxCell id="rssOyNdwKdreHG8hD41S-103" style="edgeStyle=orthogonalEdgeStyle;rounded=0;orthogonalLoop=1;jettySize=auto;html=1;exitX=0.5;exitY=1;exitDx=0;exitDy=0;entryX=0.5;entryY=0;entryDx=0;entryDy=0;dashed=1;dashPattern=1 2;startArrow=none;startFill=0;endArrow=none;endFill=0;" parent="1" source="rssOyNdwKdreHG8hD41S-104" target="rssOyNdwKdreHG8hD41S-114" edge="1">
          <mxGeometry relative="1" as="geometry" />
        </mxCell>
        <mxCell id="rssOyNdwKdreHG8hD41S-104" value="Invoker" style="rounded=1;whiteSpace=wrap;html=1;" parent="1" vertex="1">
          <mxGeometry x="810" y="2940" width="120" height="40" as="geometry" />
        </mxCell>
        <mxCell id="rssOyNdwKdreHG8hD41S-105" style="edgeStyle=orthogonalEdgeStyle;rounded=0;orthogonalLoop=1;jettySize=auto;html=1;exitX=0.5;exitY=1;exitDx=0;exitDy=0;dashed=1;dashPattern=1 2;startArrow=none;startFill=0;endArrow=none;endFill=0;" parent="1" source="rssOyNdwKdreHG8hD41S-106" edge="1">
          <mxGeometry relative="1" as="geometry">
            <mxPoint x="270" y="3440" as="targetPoint" />
          </mxGeometry>
        </mxCell>
        <mxCell id="rssOyNdwKdreHG8hD41S-106" value="" style="rounded=0;whiteSpace=wrap;html=1;" parent="1" vertex="1">
          <mxGeometry x="265" y="3070" width="10" height="260" as="geometry" />
        </mxCell>
        <mxCell id="rssOyNdwKdreHG8hD41S-107" style="edgeStyle=orthogonalEdgeStyle;rounded=0;orthogonalLoop=1;jettySize=auto;html=1;exitX=0.5;exitY=1;exitDx=0;exitDy=0;dashed=1;dashPattern=1 2;startArrow=none;startFill=0;endArrow=none;endFill=0;" parent="1" source="rssOyNdwKdreHG8hD41S-108" edge="1">
          <mxGeometry relative="1" as="geometry">
            <mxPoint x="420" y="3440" as="targetPoint" />
          </mxGeometry>
        </mxCell>
        <mxCell id="rssOyNdwKdreHG8hD41S-108" value="" style="rounded=0;whiteSpace=wrap;html=1;" parent="1" vertex="1">
          <mxGeometry x="415" y="3090" width="10" height="220" as="geometry" />
        </mxCell>
        <mxCell id="rssOyNdwKdreHG8hD41S-109" style="edgeStyle=orthogonalEdgeStyle;rounded=0;orthogonalLoop=1;jettySize=auto;html=1;exitX=0.5;exitY=1;exitDx=0;exitDy=0;dashed=1;dashPattern=1 2;startArrow=none;startFill=0;endArrow=none;endFill=0;" parent="1" source="rssOyNdwKdreHG8hD41S-110" edge="1">
          <mxGeometry relative="1" as="geometry">
            <mxPoint x="570" y="3440" as="targetPoint" />
          </mxGeometry>
        </mxCell>
        <mxCell id="rssOyNdwKdreHG8hD41S-110" value="" style="rounded=0;whiteSpace=wrap;html=1;" parent="1" vertex="1">
          <mxGeometry x="565" y="3110" width="10" height="180" as="geometry" />
        </mxCell>
        <mxCell id="rssOyNdwKdreHG8hD41S-111" style="edgeStyle=orthogonalEdgeStyle;rounded=0;orthogonalLoop=1;jettySize=auto;html=1;exitX=0.5;exitY=1;exitDx=0;exitDy=0;dashed=1;dashPattern=1 2;startArrow=none;startFill=0;endArrow=none;endFill=0;" parent="1" source="rssOyNdwKdreHG8hD41S-112" edge="1">
          <mxGeometry relative="1" as="geometry">
            <mxPoint x="720" y="3440" as="targetPoint" />
          </mxGeometry>
        </mxCell>
        <mxCell id="rssOyNdwKdreHG8hD41S-112" value="" style="rounded=0;whiteSpace=wrap;html=1;" parent="1" vertex="1">
          <mxGeometry x="715" y="3130" width="10" height="140" as="geometry" />
        </mxCell>
        <mxCell id="rssOyNdwKdreHG8hD41S-113" style="edgeStyle=orthogonalEdgeStyle;rounded=0;orthogonalLoop=1;jettySize=auto;html=1;exitX=0.5;exitY=1;exitDx=0;exitDy=0;dashed=1;dashPattern=1 2;startArrow=none;startFill=0;endArrow=none;endFill=0;" parent="1" source="rssOyNdwKdreHG8hD41S-114" edge="1">
          <mxGeometry relative="1" as="geometry">
            <mxPoint x="870" y="3440" as="targetPoint" />
          </mxGeometry>
        </mxCell>
        <mxCell id="rssOyNdwKdreHG8hD41S-114" value="" style="rounded=0;whiteSpace=wrap;html=1;" parent="1" vertex="1">
          <mxGeometry x="865" y="3150" width="10" height="100" as="geometry" />
        </mxCell>
        <mxCell id="rssOyNdwKdreHG8hD41S-115" value="" style="endArrow=classic;html=1;rounded=0;entryX=0.1;entryY=0.05;entryDx=0;entryDy=0;entryPerimeter=0;exitX=1.1;exitY=0.119;exitDx=0;exitDy=0;exitPerimeter=0;endFill=1;" parent="1" source="rssOyNdwKdreHG8hD41S-106" target="rssOyNdwKdreHG8hD41S-108" edge="1">
          <mxGeometry width="50" height="50" relative="1" as="geometry">
            <mxPoint x="280" y="3160" as="sourcePoint" />
            <mxPoint x="330" y="3110" as="targetPoint" />
          </mxGeometry>
        </mxCell>
        <mxCell id="rssOyNdwKdreHG8hD41S-116" value="" style="endArrow=classic;html=1;rounded=0;exitX=1;exitY=0.136;exitDx=0;exitDy=0;exitPerimeter=0;entryX=-0.044;entryY=0.053;entryDx=0;entryDy=0;entryPerimeter=0;" parent="1" source="rssOyNdwKdreHG8hD41S-108" target="rssOyNdwKdreHG8hD41S-110" edge="1">
          <mxGeometry width="50" height="50" relative="1" as="geometry">
            <mxPoint x="450" y="3160" as="sourcePoint" />
            <mxPoint x="560" y="3120" as="targetPoint" />
          </mxGeometry>
        </mxCell>
        <mxCell id="rssOyNdwKdreHG8hD41S-117" value="" style="endArrow=classic;html=1;rounded=0;entryX=0.1;entryY=0.064;entryDx=0;entryDy=0;entryPerimeter=0;exitX=1.067;exitY=0.159;exitDx=0;exitDy=0;exitPerimeter=0;" parent="1" source="rssOyNdwKdreHG8hD41S-110" target="rssOyNdwKdreHG8hD41S-112" edge="1">
          <mxGeometry width="50" height="50" relative="1" as="geometry">
            <mxPoint x="610" y="3139" as="sourcePoint" />
            <mxPoint x="650" y="3140" as="targetPoint" />
          </mxGeometry>
        </mxCell>
        <mxCell id="rssOyNdwKdreHG8hD41S-118" value="" style="endArrow=classic;html=1;rounded=0;exitX=1.042;exitY=0.212;exitDx=0;exitDy=0;exitPerimeter=0;entryX=-0.006;entryY=0.1;entryDx=0;entryDy=0;entryPerimeter=0;" parent="1" source="rssOyNdwKdreHG8hD41S-112" target="rssOyNdwKdreHG8hD41S-114" edge="1">
          <mxGeometry width="50" height="50" relative="1" as="geometry">
            <mxPoint x="730" y="3160" as="sourcePoint" />
            <mxPoint x="860" y="3160" as="targetPoint" />
          </mxGeometry>
        </mxCell>
        <mxCell id="rssOyNdwKdreHG8hD41S-119" value="" style="endArrow=none;html=1;rounded=0;entryX=0.1;entryY=0.05;entryDx=0;entryDy=0;entryPerimeter=0;exitX=1.1;exitY=0.119;exitDx=0;exitDy=0;exitPerimeter=0;endFill=0;startArrow=classic;startFill=1;" parent="1" edge="1">
          <mxGeometry width="50" height="50" relative="1" as="geometry">
            <mxPoint x="275" y="3299.94" as="sourcePoint" />
            <mxPoint x="415" y="3300" as="targetPoint" />
          </mxGeometry>
        </mxCell>
        <mxCell id="rssOyNdwKdreHG8hD41S-120" value="" style="endArrow=none;html=1;rounded=0;exitX=1;exitY=0.136;exitDx=0;exitDy=0;exitPerimeter=0;entryX=-0.044;entryY=0.053;entryDx=0;entryDy=0;entryPerimeter=0;startArrow=classic;startFill=1;endFill=0;" parent="1" edge="1">
          <mxGeometry width="50" height="50" relative="1" as="geometry">
            <mxPoint x="425" y="3280.38" as="sourcePoint" />
            <mxPoint x="564.56" y="3280" as="targetPoint" />
          </mxGeometry>
        </mxCell>
        <mxCell id="rssOyNdwKdreHG8hD41S-121" value="" style="endArrow=none;html=1;rounded=0;entryX=0.1;entryY=0.064;entryDx=0;entryDy=0;entryPerimeter=0;exitX=1.067;exitY=0.159;exitDx=0;exitDy=0;exitPerimeter=0;startArrow=classic;startFill=1;endFill=0;" parent="1" edge="1">
          <mxGeometry width="50" height="50" relative="1" as="geometry">
            <mxPoint x="574.6700000000001" y="3260" as="sourcePoint" />
            <mxPoint x="715" y="3260.34" as="targetPoint" />
          </mxGeometry>
        </mxCell>
        <mxCell id="rssOyNdwKdreHG8hD41S-122" value="" style="endArrow=none;html=1;rounded=0;exitX=1.042;exitY=0.212;exitDx=0;exitDy=0;exitPerimeter=0;entryX=-0.006;entryY=0.1;entryDx=0;entryDy=0;entryPerimeter=0;startArrow=classic;startFill=1;endFill=0;" parent="1" edge="1">
          <mxGeometry width="50" height="50" relative="1" as="geometry">
            <mxPoint x="725.48" y="3240" as="sourcePoint" />
            <mxPoint x="865" y="3240.32" as="targetPoint" />
          </mxGeometry>
        </mxCell>
        <mxCell id="rssOyNdwKdreHG8hD41S-123" value="" style="ellipse;whiteSpace=wrap;html=1;dashed=1;fontSize=18;strokeWidth=2;fillColor=none;" parent="1" vertex="1">
          <mxGeometry x="280" y="3810" width="690" height="340" as="geometry" />
        </mxCell>
        <mxCell id="rssOyNdwKdreHG8hD41S-124" style="rounded=0;orthogonalLoop=1;jettySize=auto;html=1;exitX=0.5;exitY=0;exitDx=0;exitDy=0;entryX=0.5;entryY=1;entryDx=0;entryDy=0;horizontal=1;strokeWidth=2;fontStyle=0;startArrow=classic;startFill=1;" parent="1" source="rssOyNdwKdreHG8hD41S-126" target="rssOyNdwKdreHG8hD41S-130" edge="1">
          <mxGeometry relative="1" as="geometry" />
        </mxCell>
        <mxCell id="rssOyNdwKdreHG8hD41S-125" style="edgeStyle=none;rounded=0;orthogonalLoop=1;jettySize=auto;html=1;entryX=0.145;entryY=0;entryDx=0;entryDy=4.35;entryPerimeter=0;endArrow=classic;endFill=1;startArrow=classic;startFill=1;horizontal=1;strokeWidth=2;fontStyle=0;exitX=1;exitY=0.5;exitDx=0;exitDy=0;" parent="1" source="rssOyNdwKdreHG8hD41S-126" target="rssOyNdwKdreHG8hD41S-136" edge="1">
          <mxGeometry relative="1" as="geometry" />
        </mxCell>
        <mxCell id="rssOyNdwKdreHG8hD41S-126" value="R1" style="rounded=1;whiteSpace=wrap;html=1;horizontal=1;strokeWidth=2;fontStyle=1;fontSize=18;fillColor=#d5e8d4;strokeColor=#82b366;" parent="1" vertex="1">
          <mxGeometry x="350" y="3920" width="120" height="60" as="geometry" />
        </mxCell>
        <mxCell id="rssOyNdwKdreHG8hD41S-127" style="edgeStyle=none;rounded=0;orthogonalLoop=1;jettySize=auto;html=1;exitX=0.25;exitY=0;exitDx=0;exitDy=0;entryX=0.5;entryY=1;entryDx=0;entryDy=0;horizontal=1;strokeWidth=2;fontStyle=0;startArrow=classic;startFill=1;" parent="1" source="rssOyNdwKdreHG8hD41S-141" target="rssOyNdwKdreHG8hD41S-131" edge="1">
          <mxGeometry relative="1" as="geometry" />
        </mxCell>
        <mxCell id="rssOyNdwKdreHG8hD41S-128" style="edgeStyle=none;orthogonalLoop=1;jettySize=auto;html=1;exitX=0;exitY=0.5;exitDx=0;exitDy=0;entryX=0.855;entryY=0;entryDx=0;entryDy=4.35;entryPerimeter=0;endArrow=classic;endFill=1;startArrow=classic;startFill=1;targetPerimeterSpacing=0;jumpStyle=arc;rounded=0;strokeWidth=2;horizontal=1;fontStyle=0;endSize=6;sketch=0;shadow=0;" parent="1" source="rssOyNdwKdreHG8hD41S-129" target="rssOyNdwKdreHG8hD41S-136" edge="1">
          <mxGeometry relative="1" as="geometry" />
        </mxCell>
        <mxCell id="rssOyNdwKdreHG8hD41S-129" value="R3" style="rounded=1;whiteSpace=wrap;html=1;horizontal=1;strokeWidth=2;fontStyle=1;fontSize=18;fillColor=#d5e8d4;strokeColor=#82b366;" parent="1" vertex="1">
          <mxGeometry x="790" y="3920" width="120" height="60" as="geometry" />
        </mxCell>
        <mxCell id="rssOyNdwKdreHG8hD41S-130" value="C1" style="rounded=1;whiteSpace=wrap;html=1;fontSize=18;horizontal=1;strokeWidth=2;fontStyle=1;fillColor=#dae8fc;strokeColor=#6c8ebf;" parent="1" vertex="1">
          <mxGeometry x="230" y="3680" width="120" height="60" as="geometry" />
        </mxCell>
        <mxCell id="rssOyNdwKdreHG8hD41S-131" value="C2" style="rounded=1;whiteSpace=wrap;html=1;fontSize=18;horizontal=1;strokeWidth=2;fontStyle=1;fillColor=#dae8fc;strokeColor=#6c8ebf;" parent="1" vertex="1">
          <mxGeometry x="390" y="3680" width="120" height="60" as="geometry" />
        </mxCell>
        <mxCell id="rssOyNdwKdreHG8hD41S-132" style="edgeStyle=none;rounded=0;orthogonalLoop=1;jettySize=auto;html=1;exitX=0.5;exitY=1;exitDx=0;exitDy=0;horizontal=1;strokeWidth=2;fontStyle=0;startArrow=classic;startFill=1;" parent="1" source="rssOyNdwKdreHG8hD41S-133" target="rssOyNdwKdreHG8hD41S-129" edge="1">
          <mxGeometry relative="1" as="geometry">
            <mxPoint x="1040" y="3990" as="targetPoint" />
          </mxGeometry>
        </mxCell>
        <mxCell id="rssOyNdwKdreHG8hD41S-133" value="S1" style="rounded=1;whiteSpace=wrap;html=1;fontSize=18;horizontal=1;strokeWidth=2;fontStyle=1;fillColor=#dae8fc;strokeColor=#6c8ebf;" parent="1" vertex="1">
          <mxGeometry x="910" y="3680" width="120" height="60" as="geometry" />
        </mxCell>
        <mxCell id="rssOyNdwKdreHG8hD41S-134" style="edgeStyle=none;rounded=0;orthogonalLoop=1;jettySize=auto;html=1;exitX=0.5;exitY=1;exitDx=0;exitDy=0;entryX=0.75;entryY=0;entryDx=0;entryDy=0;horizontal=1;strokeWidth=2;fontStyle=0;startArrow=classic;startFill=1;" parent="1" source="rssOyNdwKdreHG8hD41S-135" target="rssOyNdwKdreHG8hD41S-141" edge="1">
          <mxGeometry relative="1" as="geometry" />
        </mxCell>
        <mxCell id="rssOyNdwKdreHG8hD41S-135" value="S2" style="rounded=1;whiteSpace=wrap;html=1;fontSize=18;horizontal=1;strokeWidth=2;fontStyle=1;fillColor=#dae8fc;strokeColor=#6c8ebf;" parent="1" vertex="1">
          <mxGeometry x="750" y="3680" width="120" height="60" as="geometry" />
        </mxCell>
        <mxCell id="rssOyNdwKdreHG8hD41S-136" value="" style="shape=cylinder3;whiteSpace=wrap;html=1;boundedLbl=1;backgroundOutline=1;size=15;horizontal=1;strokeWidth=2;fontStyle=1;fillColor=#ffe6cc;strokeColor=#d79b00;" parent="1" vertex="1">
          <mxGeometry x="600" y="4020" width="60" height="80" as="geometry" />
        </mxCell>
        <mxCell id="rssOyNdwKdreHG8hD41S-137" value="事件/注册信息" style="text;html=1;resizable=0;autosize=1;align=center;verticalAlign=middle;points=[];fillColor=none;strokeColor=none;rounded=0;fontSize=18;fontStyle=1;strokeWidth=1;" parent="1" vertex="1">
          <mxGeometry x="565" y="4105" width="140" height="40" as="geometry" />
        </mxCell>
        <mxCell id="rssOyNdwKdreHG8hD41S-138" value="写入事件" style="text;html=1;resizable=0;autosize=1;align=center;verticalAlign=middle;points=[];fillColor=none;strokeColor=none;rounded=0;fontSize=18;rotation=0;strokeWidth=1;fontStyle=1" parent="1" vertex="1">
          <mxGeometry x="580" y="3945" width="100" height="40" as="geometry" />
        </mxCell>
        <mxCell id="rssOyNdwKdreHG8hD41S-139" value="轮询事件" style="text;html=1;resizable=0;autosize=1;align=center;verticalAlign=middle;points=[];fillColor=none;strokeColor=none;rounded=0;fontSize=18;rotation=30;strokeWidth=1;fontStyle=1" parent="1" vertex="1">
          <mxGeometry x="475" y="3985" width="100" height="40" as="geometry" />
        </mxCell>
        <mxCell id="rssOyNdwKdreHG8hD41S-140" style="edgeStyle=none;rounded=0;sketch=0;jumpStyle=arc;orthogonalLoop=1;jettySize=auto;html=1;exitX=0.5;exitY=1;exitDx=0;exitDy=0;shadow=0;fontSize=18;startArrow=classic;startFill=1;endArrow=classic;endFill=1;endSize=6;targetPerimeterSpacing=0;strokeWidth=2;" parent="1" source="rssOyNdwKdreHG8hD41S-141" target="rssOyNdwKdreHG8hD41S-136" edge="1">
          <mxGeometry relative="1" as="geometry" />
        </mxCell>
        <mxCell id="rssOyNdwKdreHG8hD41S-141" value="R2" style="rounded=1;whiteSpace=wrap;html=1;horizontal=1;strokeWidth=2;fontStyle=1;fontSize=18;fillColor=#d5e8d4;strokeColor=#82b366;" parent="1" vertex="1">
          <mxGeometry x="570" y="3840" width="120" height="60" as="geometry" />
        </mxCell>
        <mxCell id="rssOyNdwKdreHG8hD41S-142" value="轮询事件" style="text;html=1;resizable=0;autosize=1;align=center;verticalAlign=middle;points=[];fillColor=none;strokeColor=none;rounded=0;fontSize=18;rotation=-30;strokeWidth=1;fontStyle=1" parent="1" vertex="1">
          <mxGeometry x="685" y="3989" width="100" height="40" as="geometry" />
        </mxCell>
        <mxCell id="rssOyNdwKdreHG8hD41S-143" value="注册" style="text;html=1;resizable=0;autosize=1;align=center;verticalAlign=middle;points=[];fillColor=none;strokeColor=none;rounded=0;fontSize=18;rotation=300;fontStyle=1" parent="1" vertex="1">
          <mxGeometry x="915" y="3805" width="60" height="40" as="geometry" />
        </mxCell>
        <mxCell id="rssOyNdwKdreHG8hD41S-144" value="发现" style="text;html=1;resizable=0;autosize=1;align=center;verticalAlign=middle;points=[];fillColor=none;strokeColor=none;rounded=0;fontSize=18;rotation=54;fontStyle=1" parent="1" vertex="1">
          <mxGeometry x="285" y="3795" width="60" height="40" as="geometry" />
        </mxCell>
        <mxCell id="rssOyNdwKdreHG8hD41S-145" value="" style="ellipse;whiteSpace=wrap;html=1;dashed=1;fontSize=18;strokeWidth=1;strokeColor=#D5E8D4;fillColor=none;" parent="1" vertex="1">
          <mxGeometry x="1200" y="3810" width="690" height="340" as="geometry" />
        </mxCell>
        <mxCell id="rssOyNdwKdreHG8hD41S-146" style="rounded=0;orthogonalLoop=1;jettySize=auto;html=1;exitX=0.5;exitY=0;exitDx=0;exitDy=0;entryX=0.5;entryY=1;entryDx=0;entryDy=0;horizontal=1;strokeWidth=1;fontStyle=0;startArrow=classic;startFill=1;strokeColor=#FFFF00;" parent="1" source="rssOyNdwKdreHG8hD41S-148" target="rssOyNdwKdreHG8hD41S-152" edge="1">
          <mxGeometry relative="1" as="geometry" />
        </mxCell>
        <mxCell id="rssOyNdwKdreHG8hD41S-147" style="edgeStyle=none;rounded=0;orthogonalLoop=1;jettySize=auto;html=1;entryX=0.145;entryY=0;entryDx=0;entryDy=4.35;entryPerimeter=0;endArrow=classic;endFill=1;startArrow=classic;startFill=1;horizontal=1;strokeWidth=1;fontStyle=0;exitX=1;exitY=0.5;exitDx=0;exitDy=0;strokeColor=#FFFF00;" parent="1" source="rssOyNdwKdreHG8hD41S-148" target="rssOyNdwKdreHG8hD41S-158" edge="1">
          <mxGeometry relative="1" as="geometry" />
        </mxCell>
        <mxCell id="rssOyNdwKdreHG8hD41S-148" value="R1" style="rounded=1;whiteSpace=wrap;html=1;horizontal=1;strokeWidth=1;fontStyle=0;fontSize=18;fillColor=#d5e8d4;strokeColor=#82b366;" parent="1" vertex="1">
          <mxGeometry x="1270" y="3920" width="120" height="60" as="geometry" />
        </mxCell>
        <mxCell id="rssOyNdwKdreHG8hD41S-149" style="edgeStyle=none;rounded=0;orthogonalLoop=1;jettySize=auto;html=1;exitX=0.25;exitY=0;exitDx=0;exitDy=0;entryX=0.5;entryY=1;entryDx=0;entryDy=0;horizontal=1;strokeWidth=1;fontStyle=0;startArrow=classic;startFill=1;strokeColor=#FFFF00;" parent="1" source="rssOyNdwKdreHG8hD41S-163" target="rssOyNdwKdreHG8hD41S-153" edge="1">
          <mxGeometry relative="1" as="geometry" />
        </mxCell>
        <mxCell id="rssOyNdwKdreHG8hD41S-150" style="edgeStyle=none;orthogonalLoop=1;jettySize=auto;html=1;exitX=0;exitY=0.5;exitDx=0;exitDy=0;entryX=0.855;entryY=0;entryDx=0;entryDy=4.35;entryPerimeter=0;endArrow=classic;endFill=1;startArrow=classic;startFill=1;targetPerimeterSpacing=0;jumpStyle=arc;rounded=0;strokeWidth=1;horizontal=1;fontStyle=0;endSize=6;sketch=0;shadow=0;strokeColor=#FFFF00;" parent="1" source="rssOyNdwKdreHG8hD41S-151" target="rssOyNdwKdreHG8hD41S-158" edge="1">
          <mxGeometry relative="1" as="geometry" />
        </mxCell>
        <mxCell id="rssOyNdwKdreHG8hD41S-151" value="R3" style="rounded=1;whiteSpace=wrap;html=1;horizontal=1;strokeWidth=1;fontStyle=0;fontSize=18;fillColor=#d5e8d4;strokeColor=#82b366;" parent="1" vertex="1">
          <mxGeometry x="1710" y="3920" width="120" height="60" as="geometry" />
        </mxCell>
        <mxCell id="rssOyNdwKdreHG8hD41S-152" value="C1" style="rounded=1;whiteSpace=wrap;html=1;fontSize=18;horizontal=1;strokeWidth=1;fontStyle=0;fillColor=#dae8fc;strokeColor=#6c8ebf;" parent="1" vertex="1">
          <mxGeometry x="1150" y="3680" width="120" height="60" as="geometry" />
        </mxCell>
        <mxCell id="rssOyNdwKdreHG8hD41S-153" value="C2" style="rounded=1;whiteSpace=wrap;html=1;fontSize=18;horizontal=1;strokeWidth=1;fontStyle=0;fillColor=#dae8fc;strokeColor=#6c8ebf;" parent="1" vertex="1">
          <mxGeometry x="1310" y="3680" width="120" height="60" as="geometry" />
        </mxCell>
        <mxCell id="rssOyNdwKdreHG8hD41S-154" style="edgeStyle=none;rounded=0;orthogonalLoop=1;jettySize=auto;html=1;exitX=0.5;exitY=1;exitDx=0;exitDy=0;horizontal=1;strokeWidth=1;fontStyle=0;startArrow=classic;startFill=1;strokeColor=#FFFF00;" parent="1" source="rssOyNdwKdreHG8hD41S-155" target="rssOyNdwKdreHG8hD41S-151" edge="1">
          <mxGeometry relative="1" as="geometry">
            <mxPoint x="1960" y="3990" as="targetPoint" />
          </mxGeometry>
        </mxCell>
        <mxCell id="rssOyNdwKdreHG8hD41S-155" value="S1" style="rounded=1;whiteSpace=wrap;html=1;fontSize=18;horizontal=1;strokeWidth=1;fontStyle=0;fillColor=#dae8fc;strokeColor=#6c8ebf;" parent="1" vertex="1">
          <mxGeometry x="1830" y="3680" width="120" height="60" as="geometry" />
        </mxCell>
        <mxCell id="rssOyNdwKdreHG8hD41S-156" style="edgeStyle=none;rounded=0;orthogonalLoop=1;jettySize=auto;html=1;exitX=0.5;exitY=1;exitDx=0;exitDy=0;entryX=0.75;entryY=0;entryDx=0;entryDy=0;horizontal=1;strokeWidth=1;fontStyle=0;startArrow=classic;startFill=1;strokeColor=#FFFF00;" parent="1" source="rssOyNdwKdreHG8hD41S-157" target="rssOyNdwKdreHG8hD41S-163" edge="1">
          <mxGeometry relative="1" as="geometry" />
        </mxCell>
        <mxCell id="rssOyNdwKdreHG8hD41S-157" value="S2" style="rounded=1;whiteSpace=wrap;html=1;fontSize=18;horizontal=1;strokeWidth=1;fontStyle=0;fillColor=#dae8fc;strokeColor=#6c8ebf;" parent="1" vertex="1">
          <mxGeometry x="1670" y="3680" width="120" height="60" as="geometry" />
        </mxCell>
        <mxCell id="rssOyNdwKdreHG8hD41S-158" value="" style="shape=cylinder3;whiteSpace=wrap;html=1;boundedLbl=1;backgroundOutline=1;size=15;horizontal=1;strokeWidth=1;fontStyle=0;fillColor=#ffe6cc;strokeColor=#d79b00;" parent="1" vertex="1">
          <mxGeometry x="1520" y="4020" width="60" height="80" as="geometry" />
        </mxCell>
        <mxCell id="rssOyNdwKdreHG8hD41S-159" value="事件/注册信息" style="text;html=1;resizable=0;autosize=1;align=center;verticalAlign=middle;points=[];fillColor=none;strokeColor=none;rounded=0;fontSize=18;fontStyle=0;strokeWidth=1;fontColor=#FFFF00;" parent="1" vertex="1">
          <mxGeometry x="1490" y="4110" width="130" height="30" as="geometry" />
        </mxCell>
        <mxCell id="rssOyNdwKdreHG8hD41S-160" value="2.写入事件" style="text;html=1;resizable=0;autosize=1;align=center;verticalAlign=middle;points=[];fillColor=none;strokeColor=none;rounded=0;fontSize=18;rotation=0;strokeWidth=1;fontStyle=0;fontColor=#FFFF00;" parent="1" vertex="1">
          <mxGeometry x="1500" y="3950" width="100" height="30" as="geometry" />
        </mxCell>
        <mxCell id="rssOyNdwKdreHG8hD41S-161" value="3.轮询事件" style="text;html=1;resizable=0;autosize=1;align=center;verticalAlign=middle;points=[];fillColor=none;strokeColor=none;rounded=0;fontSize=18;rotation=30;strokeWidth=1;fontStyle=0;fontColor=#FFFF00;" parent="1" vertex="1">
          <mxGeometry x="1395" y="3990" width="100" height="30" as="geometry" />
        </mxCell>
        <mxCell id="rssOyNdwKdreHG8hD41S-162" style="edgeStyle=none;rounded=0;sketch=0;jumpStyle=arc;orthogonalLoop=1;jettySize=auto;html=1;exitX=0.5;exitY=1;exitDx=0;exitDy=0;shadow=0;fontSize=18;startArrow=classic;startFill=1;endArrow=classic;endFill=1;endSize=6;targetPerimeterSpacing=0;strokeWidth=1;strokeColor=#FFFF00;" parent="1" source="rssOyNdwKdreHG8hD41S-163" target="rssOyNdwKdreHG8hD41S-158" edge="1">
          <mxGeometry relative="1" as="geometry" />
        </mxCell>
        <mxCell id="rssOyNdwKdreHG8hD41S-163" value="R2" style="rounded=1;whiteSpace=wrap;html=1;horizontal=1;strokeWidth=1;fontStyle=0;fontSize=18;fillColor=#d5e8d4;strokeColor=#82b366;" parent="1" vertex="1">
          <mxGeometry x="1490" y="3840" width="120" height="60" as="geometry" />
        </mxCell>
        <mxCell id="rssOyNdwKdreHG8hD41S-164" value="轮询事件" style="text;html=1;resizable=0;autosize=1;align=center;verticalAlign=middle;points=[];fillColor=none;strokeColor=none;rounded=0;fontSize=18;rotation=-30;strokeWidth=1;fontStyle=0;fontColor=#FFFF00;" parent="1" vertex="1">
          <mxGeometry x="1610" y="3994" width="90" height="30" as="geometry" />
        </mxCell>
        <mxCell id="rssOyNdwKdreHG8hD41S-165" value="1.注册" style="text;html=1;resizable=0;autosize=1;align=center;verticalAlign=middle;points=[];fillColor=none;strokeColor=none;rounded=0;fontSize=18;rotation=-40;fontColor=#FFFF00;" parent="1" vertex="1">
          <mxGeometry x="1650" y="3780" width="70" height="30" as="geometry" />
        </mxCell>
        <mxCell id="rssOyNdwKdreHG8hD41S-166" value="4.发现" style="text;html=1;resizable=0;autosize=1;align=center;verticalAlign=middle;points=[];fillColor=none;strokeColor=none;rounded=0;fontSize=18;rotation=54;fontColor=#FFFF00;" parent="1" vertex="1">
          <mxGeometry x="1200" y="3800" width="70" height="30" as="geometry" />
        </mxCell>
        <mxCell id="rssOyNdwKdreHG8hD41S-167" style="edgeStyle=orthogonalEdgeStyle;rounded=0;orthogonalLoop=1;jettySize=auto;html=1;exitX=0.5;exitY=1;exitDx=0;exitDy=0;exitPerimeter=0;fontSize=16;strokeColor=#000000;" parent="1" source="rssOyNdwKdreHG8hD41S-170" target="rssOyNdwKdreHG8hD41S-174" edge="1">
          <mxGeometry relative="1" as="geometry" />
        </mxCell>
        <mxCell id="rssOyNdwKdreHG8hD41S-168" style="edgeStyle=orthogonalEdgeStyle;rounded=0;orthogonalLoop=1;jettySize=auto;html=1;exitX=1;exitY=0.5;exitDx=0;exitDy=0;exitPerimeter=0;entryX=0;entryY=0.5;entryDx=0;entryDy=0;entryPerimeter=0;fontSize=16;strokeColor=#000000;" parent="1" source="rssOyNdwKdreHG8hD41S-170" target="rssOyNdwKdreHG8hD41S-179" edge="1">
          <mxGeometry relative="1" as="geometry" />
        </mxCell>
        <mxCell id="rssOyNdwKdreHG8hD41S-169" value="有异常" style="edgeLabel;html=1;align=center;verticalAlign=middle;resizable=0;points=[];fontSize=16;" parent="rssOyNdwKdreHG8hD41S-168" vertex="1" connectable="0">
          <mxGeometry x="-0.1556" y="1" relative="1" as="geometry">
            <mxPoint x="-8" y="-14" as="offset" />
          </mxGeometry>
        </mxCell>
        <mxCell id="rssOyNdwKdreHG8hD41S-170" value="&lt;font style=&quot;font-size: 16px&quot;&gt;关闭&lt;br&gt;状态&lt;/font&gt;" style="strokeWidth=2;html=1;shape=mxgraph.flowchart.start_2;whiteSpace=wrap;fillColor=#d5e8d4;strokeColor=none;" parent="1" vertex="1">
          <mxGeometry x="483" y="4436" width="60" height="60" as="geometry" />
        </mxCell>
        <mxCell id="rssOyNdwKdreHG8hD41S-171" value="" style="endArrow=classic;html=1;rounded=0;fontSize=16;entryX=0.5;entryY=0;entryDx=0;entryDy=0;entryPerimeter=0;strokeColor=#000000;" parent="1" target="rssOyNdwKdreHG8hD41S-170" edge="1">
          <mxGeometry width="50" height="50" relative="1" as="geometry">
            <mxPoint x="473" y="4356" as="sourcePoint" />
            <mxPoint x="463" y="4356" as="targetPoint" />
          </mxGeometry>
        </mxCell>
        <mxCell id="rssOyNdwKdreHG8hD41S-172" value="" style="endArrow=classic;html=1;rounded=0;fontSize=16;strokeColor=#000000;" parent="1" target="rssOyNdwKdreHG8hD41S-170" edge="1">
          <mxGeometry width="50" height="50" relative="1" as="geometry">
            <mxPoint x="513" y="4356" as="sourcePoint" />
            <mxPoint x="463" y="4426" as="targetPoint" />
          </mxGeometry>
        </mxCell>
        <mxCell id="rssOyNdwKdreHG8hD41S-173" value="" style="endArrow=classic;html=1;rounded=0;fontSize=16;entryX=0.5;entryY=0;entryDx=0;entryDy=0;entryPerimeter=0;strokeColor=#000000;" parent="1" target="rssOyNdwKdreHG8hD41S-170" edge="1">
          <mxGeometry width="50" height="50" relative="1" as="geometry">
            <mxPoint x="553" y="4356" as="sourcePoint" />
            <mxPoint x="523" y="4446" as="targetPoint" />
          </mxGeometry>
        </mxCell>
        <mxCell id="rssOyNdwKdreHG8hD41S-174" value="服务方" style="strokeWidth=2;html=1;shape=mxgraph.flowchart.start_1;whiteSpace=wrap;fontSize=16;fillColor=#dae8fc;strokeColor=#6c8ebf;" parent="1" vertex="1">
          <mxGeometry x="463" y="4626" width="100" height="60" as="geometry" />
        </mxCell>
        <mxCell id="rssOyNdwKdreHG8hD41S-175" value="&lt;font style=&quot;font-size: 16px&quot;&gt;1&lt;/font&gt;" style="strokeWidth=2;html=1;shape=mxgraph.flowchart.start_2;whiteSpace=wrap;fillColor=#CCCC00;strokeColor=none;" parent="1" vertex="1">
          <mxGeometry x="453" y="4436" width="30" height="30" as="geometry" />
        </mxCell>
        <mxCell id="rssOyNdwKdreHG8hD41S-176" value="无异常" style="text;html=1;align=center;verticalAlign=middle;resizable=0;points=[];autosize=1;strokeColor=none;fillColor=none;fontSize=16;" parent="1" vertex="1">
          <mxGeometry x="483" y="4556" width="60" height="20" as="geometry" />
        </mxCell>
        <mxCell id="rssOyNdwKdreHG8hD41S-177" value="&lt;font style=&quot;font-size: 16px&quot;&gt;2&lt;/font&gt;" style="strokeWidth=2;html=1;shape=mxgraph.flowchart.start_2;whiteSpace=wrap;fillColor=#CCCC00;strokeColor=none;" parent="1" vertex="1">
          <mxGeometry x="483" y="4516" width="30" height="30" as="geometry" />
        </mxCell>
        <mxCell id="rssOyNdwKdreHG8hD41S-178" style="edgeStyle=orthogonalEdgeStyle;rounded=0;orthogonalLoop=1;jettySize=auto;html=1;exitX=1;exitY=0.5;exitDx=0;exitDy=0;exitPerimeter=0;fontSize=12;strokeColor=#000000;" parent="1" source="rssOyNdwKdreHG8hD41S-179" target="rssOyNdwKdreHG8hD41S-183" edge="1">
          <mxGeometry relative="1" as="geometry" />
        </mxCell>
        <mxCell id="rssOyNdwKdreHG8hD41S-179" value="验证" style="strokeWidth=2;html=1;shape=mxgraph.flowchart.decision;whiteSpace=wrap;fontSize=16;fillColor=none;strokeColor=#999900;" parent="1" vertex="1">
          <mxGeometry x="633" y="4436" width="60" height="60" as="geometry" />
        </mxCell>
        <mxCell id="rssOyNdwKdreHG8hD41S-180" value="&lt;ul style=&quot;font-size: 12px&quot;&gt;&lt;li&gt;时间：10秒内，失败率&amp;gt;50%&lt;/li&gt;&lt;li&gt;空间：&amp;gt;20&lt;/li&gt;&lt;/ul&gt;" style="text;html=1;align=left;verticalAlign=middle;resizable=0;points=[];autosize=1;strokeColor=none;fillColor=none;fontSize=16;" parent="1" vertex="1">
          <mxGeometry x="613" y="4380" width="210" height="70" as="geometry" />
        </mxCell>
        <mxCell id="rssOyNdwKdreHG8hD41S-181" style="edgeStyle=orthogonalEdgeStyle;rounded=0;orthogonalLoop=1;jettySize=auto;html=1;exitX=1;exitY=0.5;exitDx=0;exitDy=0;exitPerimeter=0;fontSize=12;strokeColor=#000000;" parent="1" source="rssOyNdwKdreHG8hD41S-183" target="rssOyNdwKdreHG8hD41S-184" edge="1">
          <mxGeometry relative="1" as="geometry" />
        </mxCell>
        <mxCell id="rssOyNdwKdreHG8hD41S-182" style="edgeStyle=orthogonalEdgeStyle;rounded=0;orthogonalLoop=1;jettySize=auto;html=1;exitX=0.5;exitY=1;exitDx=0;exitDy=0;exitPerimeter=0;fontSize=12;strokeColor=#000000;startArrow=none;" parent="1" source="rssOyNdwKdreHG8hD41S-191" target="rssOyNdwKdreHG8hD41S-188" edge="1">
          <mxGeometry relative="1" as="geometry" />
        </mxCell>
        <mxCell id="rssOyNdwKdreHG8hD41S-183" value="&lt;font style=&quot;font-size: 16px&quot;&gt;启动&lt;br&gt;状态&lt;/font&gt;" style="strokeWidth=2;html=1;shape=mxgraph.flowchart.start_2;whiteSpace=wrap;fillColor=#FF9999;strokeColor=none;" parent="1" vertex="1">
          <mxGeometry x="803" y="4436" width="60" height="60" as="geometry" />
        </mxCell>
        <mxCell id="rssOyNdwKdreHG8hD41S-184" value="Fallback" style="strokeWidth=2;html=1;shape=mxgraph.flowchart.start_1;whiteSpace=wrap;fontSize=16;fillColor=#FFD966;strokeColor=none;" parent="1" vertex="1">
          <mxGeometry x="963" y="4436" width="100" height="60" as="geometry" />
        </mxCell>
        <mxCell id="rssOyNdwKdreHG8hD41S-185" value="&lt;font style=&quot;font-size: 16px&quot;&gt;3&lt;/font&gt;" style="strokeWidth=2;html=1;shape=mxgraph.flowchart.start_2;whiteSpace=wrap;fillColor=#CCCC00;strokeColor=none;" parent="1" vertex="1">
          <mxGeometry x="603" y="4430" width="30" height="30" as="geometry" />
        </mxCell>
        <mxCell id="rssOyNdwKdreHG8hD41S-186" value="所有请求&lt;br&gt;直接进入" style="edgeLabel;html=1;align=center;verticalAlign=middle;resizable=0;points=[];fontSize=16;" parent="1" vertex="1" connectable="0">
          <mxGeometry x="906" y="4466" as="geometry" />
        </mxCell>
        <mxCell id="rssOyNdwKdreHG8hD41S-187" style="edgeStyle=orthogonalEdgeStyle;rounded=0;orthogonalLoop=1;jettySize=auto;html=1;exitX=0;exitY=0.5;exitDx=0;exitDy=0;exitPerimeter=0;fontSize=12;strokeColor=#000000;" parent="1" source="rssOyNdwKdreHG8hD41S-188" target="rssOyNdwKdreHG8hD41S-174" edge="1">
          <mxGeometry relative="1" as="geometry" />
        </mxCell>
        <mxCell id="rssOyNdwKdreHG8hD41S-188" value="重试" style="strokeWidth=2;html=1;shape=mxgraph.flowchart.decision;whiteSpace=wrap;fontSize=16;fillColor=none;strokeColor=#999900;" parent="1" vertex="1">
          <mxGeometry x="803" y="4626" width="60" height="60" as="geometry" />
        </mxCell>
        <mxCell id="rssOyNdwKdreHG8hD41S-189" value="&lt;font style=&quot;font-size: 16px&quot;&gt;4&lt;/font&gt;" style="strokeWidth=2;html=1;shape=mxgraph.flowchart.start_2;whiteSpace=wrap;fillColor=#CCCC00;strokeColor=none;" parent="1" vertex="1">
          <mxGeometry x="863" y="4420" width="30" height="30" as="geometry" />
        </mxCell>
        <mxCell id="rssOyNdwKdreHG8hD41S-190" value="&lt;font style=&quot;font-size: 16px&quot;&gt;5&lt;/font&gt;" style="strokeWidth=2;html=1;shape=mxgraph.flowchart.start_2;whiteSpace=wrap;fillColor=#CCCC00;strokeColor=none;" parent="1" vertex="1">
          <mxGeometry x="803" y="4516" width="30" height="30" as="geometry" />
        </mxCell>
        <mxCell id="rssOyNdwKdreHG8hD41S-191" value="5秒后" style="text;html=1;align=center;verticalAlign=middle;resizable=0;points=[];autosize=1;strokeColor=none;fillColor=none;fontSize=16;" parent="1" vertex="1">
          <mxGeometry x="803" y="4576" width="60" height="20" as="geometry" />
        </mxCell>
        <mxCell id="rssOyNdwKdreHG8hD41S-192" value="" style="edgeStyle=orthogonalEdgeStyle;rounded=0;orthogonalLoop=1;jettySize=auto;html=1;exitX=0.5;exitY=1;exitDx=0;exitDy=0;exitPerimeter=0;fontSize=12;strokeColor=#000000;endArrow=none;" parent="1" source="rssOyNdwKdreHG8hD41S-183" target="rssOyNdwKdreHG8hD41S-191" edge="1">
          <mxGeometry relative="1" as="geometry">
            <mxPoint x="833" y="4496" as="sourcePoint" />
            <mxPoint x="833" y="4636" as="targetPoint" />
          </mxGeometry>
        </mxCell>
        <mxCell id="rssOyNdwKdreHG8hD41S-193" value="A.请求成功" style="text;html=1;align=center;verticalAlign=middle;resizable=0;points=[];autosize=1;strokeColor=none;fillColor=none;fontSize=16;" parent="1" vertex="1">
          <mxGeometry x="638" y="4666" width="90" height="20" as="geometry" />
        </mxCell>
        <mxCell id="rssOyNdwKdreHG8hD41S-194" value="" style="endArrow=classic;html=1;rounded=0;fontSize=16;entryX=0.855;entryY=0.855;entryDx=0;entryDy=0;entryPerimeter=0;strokeColor=#000000;exitX=0;exitY=0.5;exitDx=0;exitDy=0;exitPerimeter=0;" parent="1" source="rssOyNdwKdreHG8hD41S-188" target="rssOyNdwKdreHG8hD41S-170" edge="1">
          <mxGeometry width="50" height="50" relative="1" as="geometry">
            <mxPoint x="563" y="4366" as="sourcePoint" />
            <mxPoint x="523" y="4446" as="targetPoint" />
          </mxGeometry>
        </mxCell>
        <mxCell id="rssOyNdwKdreHG8hD41S-195" value="B.一量请求成功，&lt;br&gt;就关闭熔断" style="text;html=1;align=center;verticalAlign=middle;resizable=0;points=[];autosize=1;strokeColor=none;fillColor=none;fontSize=16;rotation=30;" parent="1" vertex="1">
          <mxGeometry x="613" y="4536" width="140" height="40" as="geometry" />
        </mxCell>
        <mxCell id="rssOyNdwKdreHG8hD41S-196" value="" style="endArrow=classic;html=1;rounded=0;fontSize=16;entryX=0.5;entryY=1;entryDx=0;entryDy=0;entryPerimeter=0;strokeColor=#000000;exitX=1;exitY=0.5;exitDx=0;exitDy=0;exitPerimeter=0;" parent="1" source="rssOyNdwKdreHG8hD41S-188" target="rssOyNdwKdreHG8hD41S-184" edge="1">
          <mxGeometry width="50" height="50" relative="1" as="geometry">
            <mxPoint x="873" y="4656" as="sourcePoint" />
            <mxPoint x="544.3" y="4497.3" as="targetPoint" />
          </mxGeometry>
        </mxCell>
        <mxCell id="rssOyNdwKdreHG8hD41S-197" value="C.请求失败" style="text;html=1;align=center;verticalAlign=middle;resizable=0;points=[];autosize=1;strokeColor=none;fillColor=none;fontSize=16;" parent="1" vertex="1">
          <mxGeometry x="906" y="4606" width="100" height="20" as="geometry" />
        </mxCell>
        <mxCell id="rssOyNdwKdreHG8hD41S-198" value="大量请求" style="text;html=1;align=center;verticalAlign=middle;resizable=0;points=[];autosize=1;strokeColor=none;fillColor=none;fontSize=16;" parent="1" vertex="1">
          <mxGeometry x="410" y="4380" width="80" height="20" as="geometry" />
        </mxCell>
        <mxCell id="rssOyNdwKdreHG8hD41S-199" style="orthogonalLoop=1;jettySize=auto;html=1;exitX=1;exitY=0.25;exitDx=0;exitDy=0;entryX=0;entryY=0.5;entryDx=0;entryDy=0;rounded=0;fontSize=18;startArrow=classic;startFill=1;strokeColor=#99FF99;strokeWidth=2;" parent="1" source="rssOyNdwKdreHG8hD41S-205" target="rssOyNdwKdreHG8hD41S-206" edge="1">
          <mxGeometry relative="1" as="geometry" />
        </mxCell>
        <mxCell id="rssOyNdwKdreHG8hD41S-200" style="edgeStyle=none;rounded=0;orthogonalLoop=1;jettySize=auto;html=1;entryX=0;entryY=0.5;entryDx=0;entryDy=0;exitX=1;exitY=0.5;exitDx=0;exitDy=0;fontSize=18;startArrow=classic;startFill=1;strokeColor=#99FF99;strokeWidth=2;" parent="1" source="rssOyNdwKdreHG8hD41S-205" target="rssOyNdwKdreHG8hD41S-207" edge="1">
          <mxGeometry relative="1" as="geometry" />
        </mxCell>
        <mxCell id="rssOyNdwKdreHG8hD41S-201" style="edgeStyle=none;rounded=0;orthogonalLoop=1;jettySize=auto;html=1;exitX=1;exitY=0.75;exitDx=0;exitDy=0;entryX=0;entryY=0.5;entryDx=0;entryDy=0;fontSize=18;startArrow=none;startFill=0;strokeColor=#FF9999;strokeWidth=2;" parent="1" source="rssOyNdwKdreHG8hD41S-205" target="rssOyNdwKdreHG8hD41S-208" edge="1">
          <mxGeometry relative="1" as="geometry" />
        </mxCell>
        <mxCell id="rssOyNdwKdreHG8hD41S-202" style="edgeStyle=none;rounded=0;orthogonalLoop=1;jettySize=auto;html=1;exitX=0;exitY=0.25;exitDx=0;exitDy=0;entryX=1;entryY=0.5;entryDx=0;entryDy=0;fontSize=18;startArrow=classic;startFill=1;strokeColor=#FFCC99;strokeWidth=2;" parent="1" source="rssOyNdwKdreHG8hD41S-205" target="rssOyNdwKdreHG8hD41S-209" edge="1">
          <mxGeometry relative="1" as="geometry" />
        </mxCell>
        <mxCell id="rssOyNdwKdreHG8hD41S-203" style="edgeStyle=none;rounded=0;orthogonalLoop=1;jettySize=auto;html=1;exitX=0;exitY=0.5;exitDx=0;exitDy=0;entryX=1;entryY=0.5;entryDx=0;entryDy=0;fontSize=18;startArrow=classic;startFill=1;strokeColor=#FFCC99;strokeWidth=2;" parent="1" source="rssOyNdwKdreHG8hD41S-205" target="rssOyNdwKdreHG8hD41S-210" edge="1">
          <mxGeometry relative="1" as="geometry" />
        </mxCell>
        <mxCell id="rssOyNdwKdreHG8hD41S-204" style="edgeStyle=none;rounded=0;orthogonalLoop=1;jettySize=auto;html=1;exitX=0;exitY=0.75;exitDx=0;exitDy=0;entryX=1;entryY=0.5;entryDx=0;entryDy=0;fontSize=18;startArrow=classic;startFill=1;strokeColor=#FFCC99;strokeWidth=2;" parent="1" source="rssOyNdwKdreHG8hD41S-205" target="rssOyNdwKdreHG8hD41S-211" edge="1">
          <mxGeometry relative="1" as="geometry" />
        </mxCell>
        <mxCell id="rssOyNdwKdreHG8hD41S-205" value="C" style="rounded=1;whiteSpace=wrap;html=1;fontSize=18;fillColor=#d5e8d4;strokeColor=#82b366;strokeWidth=2;fontStyle=1" parent="1" vertex="1">
          <mxGeometry x="1600" y="922" width="120" height="60" as="geometry" />
        </mxCell>
        <mxCell id="rssOyNdwKdreHG8hD41S-206" value="S4" style="rounded=1;whiteSpace=wrap;html=1;fontSize=18;fillColor=#dae8fc;strokeColor=#6c8ebf;strokeWidth=2;fontStyle=1" parent="1" vertex="1">
          <mxGeometry x="1940" y="752" width="120" height="60" as="geometry" />
        </mxCell>
        <mxCell id="rssOyNdwKdreHG8hD41S-207" value="S5" style="rounded=1;whiteSpace=wrap;html=1;fontSize=18;fillColor=#dae8fc;strokeColor=#6c8ebf;strokeWidth=2;fontStyle=1" parent="1" vertex="1">
          <mxGeometry x="1940" y="922" width="120" height="60" as="geometry" />
        </mxCell>
        <mxCell id="rssOyNdwKdreHG8hD41S-208" value="S6" style="rounded=1;whiteSpace=wrap;html=1;fontSize=18;fillColor=#dae8fc;strokeColor=#6c8ebf;strokeWidth=2;fontStyle=1" parent="1" vertex="1">
          <mxGeometry x="1940" y="1092" width="120" height="60" as="geometry" />
        </mxCell>
        <mxCell id="rssOyNdwKdreHG8hD41S-209" value="S1" style="rounded=1;whiteSpace=wrap;html=1;fontSize=18;fillColor=#dae8fc;strokeColor=#6c8ebf;strokeWidth=2;fontStyle=1" parent="1" vertex="1">
          <mxGeometry x="1260" y="752" width="120" height="60" as="geometry" />
        </mxCell>
        <mxCell id="rssOyNdwKdreHG8hD41S-210" value="S2" style="rounded=1;whiteSpace=wrap;html=1;fontSize=18;fillColor=#dae8fc;strokeColor=#6c8ebf;strokeWidth=2;fontStyle=1" parent="1" vertex="1">
          <mxGeometry x="1260" y="922" width="120" height="60" as="geometry" />
        </mxCell>
        <mxCell id="rssOyNdwKdreHG8hD41S-211" value="S3" style="rounded=1;whiteSpace=wrap;html=1;fontSize=18;fillColor=#dae8fc;strokeColor=#6c8ebf;strokeWidth=2;fontStyle=1" parent="1" vertex="1">
          <mxGeometry x="1260" y="1092" width="120" height="60" as="geometry" />
        </mxCell>
        <mxCell id="rssOyNdwKdreHG8hD41S-212" value="Request" style="text;html=1;resizable=0;autosize=1;align=center;verticalAlign=middle;points=[];fillColor=none;strokeColor=none;rounded=0;fontSize=18;rotation=0;fontStyle=1" parent="1" vertex="1">
          <mxGeometry x="1435" y="917" width="90" height="40" as="geometry" />
        </mxCell>
        <mxCell id="rssOyNdwKdreHG8hD41S-213" value="Response" style="text;html=1;resizable=0;autosize=1;align=center;verticalAlign=middle;points=[];fillColor=none;strokeColor=none;rounded=0;fontSize=18;rotation=0;fontStyle=1" parent="1" vertex="1">
          <mxGeometry x="1430" y="947" width="100" height="40" as="geometry" />
        </mxCell>
        <mxCell id="rssOyNdwKdreHG8hD41S-214" value="故障" style="text;html=1;resizable=0;autosize=1;align=center;verticalAlign=middle;points=[];fillColor=none;strokeColor=none;rounded=0;fontSize=18;rotation=40;fontStyle=1" parent="1" vertex="1">
          <mxGeometry x="1775" y="1037" width="60" height="40" as="geometry" />
        </mxCell>
        <mxCell id="rssOyNdwKdreHG8hD41S-215" value="HeartbeatResponse" style="text;html=1;resizable=0;autosize=1;align=center;verticalAlign=middle;points=[];fillColor=none;strokeColor=none;rounded=0;fontSize=18;fontStyle=1" parent="1" vertex="1">
          <mxGeometry x="1740" y="947" width="180" height="40" as="geometry" />
        </mxCell>
        <mxCell id="rssOyNdwKdreHG8hD41S-216" value="HeartbeatRequest" style="text;html=1;resizable=0;autosize=1;align=center;verticalAlign=middle;points=[];fillColor=none;strokeColor=none;rounded=0;fontSize=18;fontStyle=1" parent="1" vertex="1">
          <mxGeometry x="1745" y="917" width="170" height="40" as="geometry" />
        </mxCell>
        <mxCell id="rssOyNdwKdreHG8hD41S-217" style="orthogonalLoop=1;jettySize=auto;html=1;exitX=1;exitY=0.25;exitDx=0;exitDy=0;entryX=0;entryY=0.5;entryDx=0;entryDy=0;rounded=0;fontSize=18;startArrow=classic;startFill=1;strokeColor=#99FF99;" parent="1" source="rssOyNdwKdreHG8hD41S-223" target="rssOyNdwKdreHG8hD41S-224" edge="1">
          <mxGeometry relative="1" as="geometry" />
        </mxCell>
        <mxCell id="rssOyNdwKdreHG8hD41S-218" style="edgeStyle=none;rounded=0;orthogonalLoop=1;jettySize=auto;html=1;entryX=0;entryY=0.5;entryDx=0;entryDy=0;exitX=1;exitY=0.5;exitDx=0;exitDy=0;fontSize=18;startArrow=classic;startFill=1;strokeColor=#99FF99;" parent="1" source="rssOyNdwKdreHG8hD41S-223" target="rssOyNdwKdreHG8hD41S-225" edge="1">
          <mxGeometry relative="1" as="geometry" />
        </mxCell>
        <mxCell id="rssOyNdwKdreHG8hD41S-219" style="edgeStyle=none;rounded=0;orthogonalLoop=1;jettySize=auto;html=1;exitX=1;exitY=0.75;exitDx=0;exitDy=0;entryX=0;entryY=0.5;entryDx=0;entryDy=0;fontSize=18;startArrow=none;startFill=0;strokeColor=#FF9999;" parent="1" source="rssOyNdwKdreHG8hD41S-223" target="rssOyNdwKdreHG8hD41S-226" edge="1">
          <mxGeometry relative="1" as="geometry" />
        </mxCell>
        <mxCell id="rssOyNdwKdreHG8hD41S-220" style="edgeStyle=none;rounded=0;orthogonalLoop=1;jettySize=auto;html=1;exitX=0;exitY=0.25;exitDx=0;exitDy=0;entryX=1;entryY=0.5;entryDx=0;entryDy=0;fontSize=18;startArrow=classic;startFill=1;strokeColor=#FFCC99;" parent="1" source="rssOyNdwKdreHG8hD41S-223" target="rssOyNdwKdreHG8hD41S-227" edge="1">
          <mxGeometry relative="1" as="geometry" />
        </mxCell>
        <mxCell id="rssOyNdwKdreHG8hD41S-221" style="edgeStyle=none;rounded=0;orthogonalLoop=1;jettySize=auto;html=1;exitX=0;exitY=0.5;exitDx=0;exitDy=0;entryX=1;entryY=0.5;entryDx=0;entryDy=0;fontSize=18;startArrow=classic;startFill=1;strokeColor=#FFCC99;" parent="1" source="rssOyNdwKdreHG8hD41S-223" target="rssOyNdwKdreHG8hD41S-228" edge="1">
          <mxGeometry relative="1" as="geometry" />
        </mxCell>
        <mxCell id="rssOyNdwKdreHG8hD41S-222" style="edgeStyle=none;rounded=0;orthogonalLoop=1;jettySize=auto;html=1;exitX=0;exitY=0.75;exitDx=0;exitDy=0;entryX=1;entryY=0.5;entryDx=0;entryDy=0;fontSize=18;startArrow=classic;startFill=1;strokeColor=#FFCC99;" parent="1" source="rssOyNdwKdreHG8hD41S-223" target="rssOyNdwKdreHG8hD41S-229" edge="1">
          <mxGeometry relative="1" as="geometry" />
        </mxCell>
        <mxCell id="rssOyNdwKdreHG8hD41S-223" value="C" style="rounded=1;whiteSpace=wrap;html=1;fontSize=18;fillColor=#d5e8d4;strokeColor=#82b366;" parent="1" vertex="1">
          <mxGeometry x="2530" y="922" width="120" height="60" as="geometry" />
        </mxCell>
        <mxCell id="rssOyNdwKdreHG8hD41S-224" value="S4" style="rounded=1;whiteSpace=wrap;html=1;fontSize=18;fillColor=#dae8fc;strokeColor=#6c8ebf;" parent="1" vertex="1">
          <mxGeometry x="2870" y="752" width="120" height="60" as="geometry" />
        </mxCell>
        <mxCell id="rssOyNdwKdreHG8hD41S-225" value="S5" style="rounded=1;whiteSpace=wrap;html=1;fontSize=18;fillColor=#dae8fc;strokeColor=#6c8ebf;" parent="1" vertex="1">
          <mxGeometry x="2870" y="922" width="120" height="60" as="geometry" />
        </mxCell>
        <mxCell id="rssOyNdwKdreHG8hD41S-226" value="S6" style="rounded=1;whiteSpace=wrap;html=1;fontSize=18;fillColor=#dae8fc;strokeColor=#6c8ebf;" parent="1" vertex="1">
          <mxGeometry x="2870" y="1092" width="120" height="60" as="geometry" />
        </mxCell>
        <mxCell id="rssOyNdwKdreHG8hD41S-227" value="S1" style="rounded=1;whiteSpace=wrap;html=1;fontSize=18;fillColor=#dae8fc;strokeColor=#6c8ebf;" parent="1" vertex="1">
          <mxGeometry x="2190" y="752" width="120" height="60" as="geometry" />
        </mxCell>
        <mxCell id="rssOyNdwKdreHG8hD41S-228" value="S2" style="rounded=1;whiteSpace=wrap;html=1;fontSize=18;fillColor=#dae8fc;strokeColor=#6c8ebf;" parent="1" vertex="1">
          <mxGeometry x="2190" y="922" width="120" height="60" as="geometry" />
        </mxCell>
        <mxCell id="rssOyNdwKdreHG8hD41S-229" value="S3" style="rounded=1;whiteSpace=wrap;html=1;fontSize=18;fillColor=#dae8fc;strokeColor=#6c8ebf;" parent="1" vertex="1">
          <mxGeometry x="2190" y="1092" width="120" height="60" as="geometry" />
        </mxCell>
        <mxCell id="rssOyNdwKdreHG8hD41S-230" value="Request" style="text;html=1;resizable=0;autosize=1;align=center;verticalAlign=middle;points=[];fillColor=none;strokeColor=none;rounded=0;fontSize=18;rotation=0;fontColor=#FFFF00;" parent="1" vertex="1">
          <mxGeometry x="2370" y="922" width="80" height="30" as="geometry" />
        </mxCell>
        <mxCell id="rssOyNdwKdreHG8hD41S-231" value="Response" style="text;html=1;resizable=0;autosize=1;align=center;verticalAlign=middle;points=[];fillColor=none;strokeColor=none;rounded=0;fontSize=18;rotation=0;fontColor=#FFFF00;" parent="1" vertex="1">
          <mxGeometry x="2360" y="952" width="100" height="30" as="geometry" />
        </mxCell>
        <mxCell id="rssOyNdwKdreHG8hD41S-232" value="故障" style="text;html=1;resizable=0;autosize=1;align=center;verticalAlign=middle;points=[];fillColor=none;strokeColor=none;rounded=0;fontSize=18;rotation=40;fontColor=#FFFF00;" parent="1" vertex="1">
          <mxGeometry x="2710" y="1042" width="50" height="30" as="geometry" />
        </mxCell>
        <mxCell id="rssOyNdwKdreHG8hD41S-233" value="HeartbeatResponse" style="text;html=1;resizable=0;autosize=1;align=center;verticalAlign=middle;points=[];fillColor=none;strokeColor=none;rounded=0;fontSize=18;fontColor=#FFFF00;" parent="1" vertex="1">
          <mxGeometry x="2670" y="952" width="180" height="30" as="geometry" />
        </mxCell>
        <mxCell id="rssOyNdwKdreHG8hD41S-234" value="HeartbeatRequest" style="text;html=1;resizable=0;autosize=1;align=center;verticalAlign=middle;points=[];fillColor=none;strokeColor=none;rounded=0;fontSize=18;fontColor=#FFFF00;" parent="1" vertex="1">
          <mxGeometry x="2680" y="922" width="160" height="30" as="geometry" />
        </mxCell>
        <mxCell id="rssOyNdwKdreHG8hD41S-235" value="HeartbeatRequest" style="text;html=1;resizable=0;autosize=1;align=center;verticalAlign=middle;points=[];fillColor=none;strokeColor=none;rounded=0;fontSize=18;fontColor=#FFFF00;rotation=30;" parent="1" vertex="1">
          <mxGeometry x="2694" y="1012" width="160" height="30" as="geometry" />
        </mxCell>
        <mxCell id="rssOyNdwKdreHG8hD41S-236" value="HeartbeatRequest" style="text;html=1;resizable=0;autosize=1;align=center;verticalAlign=middle;points=[];fillColor=none;strokeColor=none;rounded=0;fontSize=18;rotation=30;fontStyle=1" parent="1" vertex="1">
          <mxGeometry x="1775" y="1017" width="170" height="40" as="geometry" />
        </mxCell>
      </root>
    </mxGraphModel>
  </diagram>
</mxfile>
